<?xml version="1.0" encoding="UTF-8"?> <svg xmlns="http://www.w3.org/2000/svg" width="313" height="150" viewBox="0 0 313 150" fill="none"><g clip-path="url(#clip0_1_6932)"><path d="M105.506 59.4419L88 73.6396H94.3658L105.506 64.9632L116.646 73.6396H123.012L105.506 59.4419Z" fill="black"></path><path d="M108.69 79.9496V59.4419H113.465V84.6821C113.465 84.6821 112.669 87.8372 108.69 87.8372C104.712 87.8372 103.916 84.6821 103.916 84.6821V79.9496C103.916 79.9496 106.303 83.1046 108.69 83.1046V79.9496Z" fill="black"></path><path d="M97.5508 73.6409V87.8386H102.325V75.2183C104.712 75.2183 107.099 78.3734 107.099 78.3734V73.6409C107.099 73.6409 106.304 70.4858 102.325 70.4858C98.3465 70.4858 97.5508 73.6409 97.5508 73.6409Z" fill="black"></path><path d="M127.678 73.2372H131.354V67.6487H134.445C138.444 67.6487 140.771 65.2836 140.771 61.8411C140.771 58.4156 138.487 56 134.538 56H127.678V73.2372ZM131.354 64.728V58.9795H133.834C135.956 58.9795 136.984 60.1242 136.984 61.8411C136.984 63.5497 135.956 64.728 133.851 64.728H131.354Z" fill="black"></path><path d="M142.613 73.2376H146.23V65.9236C146.23 64.3328 147.402 63.2387 148.998 63.2387C149.499 63.2387 150.187 63.3228 150.527 63.4323V60.2508C150.204 60.175 149.754 60.1245 149.389 60.1245C147.929 60.1245 146.731 60.9662 146.256 62.5654H146.12V60.3097H142.613V73.2376Z" fill="black"></path><path d="M157.204 73.4895C161.161 73.4895 163.623 70.8045 163.623 66.8235C163.623 62.8171 161.161 60.1406 157.204 60.1406C153.247 60.1406 150.785 62.8171 150.785 66.8235C150.785 70.8045 153.247 73.4895 157.204 73.4895ZM157.221 70.7119C155.396 70.7119 154.462 69.0539 154.462 66.7982C154.462 64.5426 155.396 62.876 157.221 62.876C159.013 62.876 159.947 64.5426 159.947 66.7982C159.947 69.0539 159.013 70.7119 157.221 70.7119Z" fill="black"></path><path d="M165.496 78.0849H169.113V71.1665H169.224C169.725 72.2438 170.82 73.4474 172.926 73.4474C175.897 73.4474 178.216 71.1159 178.216 66.7898C178.216 62.3458 175.796 60.1406 172.934 60.1406C170.752 60.1406 169.708 61.4284 169.224 62.4805H169.062V60.309H165.496V78.0849ZM169.037 66.773C169.037 64.4668 170.022 62.9938 171.779 62.9938C173.571 62.9938 174.522 64.5341 174.522 66.773C174.522 69.0286 173.554 70.5941 171.779 70.5941C170.039 70.5941 169.037 69.079 169.037 66.773Z" fill="black"></path><path d="M186.093 73.49C189.319 73.49 191.493 71.9328 192.003 69.5341L188.657 69.3152C188.292 70.3 187.358 70.8134 186.152 70.8134C184.344 70.8134 183.198 69.6267 183.198 67.6993V67.6909H192.079V66.7061C192.079 62.3126 189.396 60.1411 185.949 60.1411C182.111 60.1411 179.623 62.8428 179.623 66.8324C179.623 70.9313 182.077 73.49 186.093 73.49ZM183.198 65.4689C183.274 63.9959 184.403 62.8176 186.008 62.8176C187.579 62.8176 188.666 63.9286 188.674 65.4689H183.198Z" fill="black"></path><path d="M193.961 73.2371H197.578V65.9231C197.578 64.3323 198.75 63.2382 200.346 63.2382C200.847 63.2382 201.535 63.3223 201.874 63.4318V60.2503C201.552 60.1745 201.102 60.124 200.737 60.124C199.276 60.124 198.079 60.9657 197.604 62.5649H197.468V60.3092H193.961V73.2371Z" fill="black"></path><path d="M210.858 60.3092H208.404V57.2119H204.787V60.3092H203.004V63.0026H204.787V69.7359C204.77 72.2692 206.511 73.5233 209.134 73.4139C210.068 73.3802 210.731 73.195 211.096 73.0773L210.527 70.4092C210.349 70.4429 209.967 70.527 209.627 70.527C208.905 70.527 208.404 70.2577 208.404 69.2645V63.0026H210.858V60.3092Z" fill="black"></path><path d="M214.968 78.0851C217.66 78.0851 219.086 76.7215 219.825 74.6342L224.894 60.3259L221.065 60.3091L218.339 69.803H218.203L215.503 60.3091H211.699L216.378 73.6074L216.165 74.1544C215.69 75.3664 214.781 75.4254 213.508 75.0382L212.693 77.7147C213.21 77.9335 214.052 78.0851 214.968 78.0851Z" fill="black"></path><path d="M127.268 92.7407H130.945V86.6302H133.627L136.922 92.7407H140.981L137.287 86.041C139.266 85.1994 140.361 83.4907 140.361 81.1341C140.361 77.7086 138.077 75.5034 134.129 75.5034H127.268V92.7407ZM130.945 83.7012V78.4829H133.424C135.546 78.4829 136.574 79.4171 136.574 81.1341C136.574 82.8427 135.546 83.7012 133.441 83.7012H130.945Z" fill="black"></path><path d="M148.146 92.9933C151.372 92.9933 153.545 91.4363 154.055 89.0375L150.709 88.8187C150.344 89.8034 149.411 90.3169 148.204 90.3169C146.396 90.3169 145.249 89.1301 145.249 87.2026V87.1942H154.132V86.2095C154.132 81.816 151.448 79.6445 148.001 79.6445C144.163 79.6445 141.676 82.3463 141.676 86.3357C141.676 90.4347 144.129 92.9933 148.146 92.9933ZM145.249 84.9723C145.327 83.4994 146.456 82.321 148.061 82.321C149.632 82.321 150.718 83.432 150.727 84.9723H145.249Z" fill="black"></path><path d="M161.907 92.9928C165.379 92.9928 167.562 90.9728 167.732 88.0018H164.318C164.105 89.3821 163.189 90.1564 161.949 90.1564C160.259 90.1564 159.164 88.7508 159.164 86.2763C159.164 83.8356 160.268 82.4384 161.949 82.4384C163.274 82.4384 164.123 83.3053 164.318 84.593H167.732C167.579 81.6051 165.294 79.644 161.889 79.644C157.933 79.644 155.488 82.3626 155.488 86.3268C155.488 90.2574 157.891 92.9928 161.907 92.9928Z" fill="black"></path><path d="M175.463 92.9933C179.419 92.9933 181.881 90.3084 181.881 86.3273C181.881 82.321 179.419 79.6445 175.463 79.6445C171.505 79.6445 169.043 82.321 169.043 86.3273C169.043 90.3084 171.505 92.9933 175.463 92.9933ZM175.479 90.2159C173.654 90.2159 172.719 88.5577 172.719 86.3021C172.719 84.0464 173.654 82.3799 175.479 82.3799C177.27 82.3799 178.205 84.0464 178.205 86.3021C178.205 88.5577 177.27 90.2159 175.479 90.2159Z" fill="black"></path><path d="M183.756 92.7406H187.373V85.4264C187.373 83.8358 188.544 82.7416 190.141 82.7416C190.642 82.7416 191.329 82.8258 191.669 82.9352V79.7537C191.347 79.6779 190.897 79.6274 190.532 79.6274C189.071 79.6274 187.874 80.4691 187.398 82.0683H187.263V79.8126H183.756V92.7406Z" fill="black"></path><path d="M197.261 92.9511C199.365 92.9511 200.462 91.7475 200.963 90.6702H201.115V92.7407H204.682V75.5034H201.073V81.9842H200.963C200.478 80.9322 199.434 79.6444 197.252 79.6444C194.391 79.6444 191.971 81.8496 191.971 86.2935C191.971 90.6197 194.288 92.9511 197.261 92.9511ZM198.407 90.0978C196.632 90.0978 195.664 88.5324 195.664 86.2767C195.664 84.0379 196.616 82.4976 198.407 82.4976C200.164 82.4976 201.149 83.9705 201.149 86.2767C201.149 88.5829 200.147 90.0978 198.407 90.0978Z" fill="black"></path><path d="M218.028 83.4989C217.705 81.117 215.769 79.644 212.474 79.644C209.138 79.644 206.938 81.1759 206.947 83.6672C206.938 85.603 208.17 86.8571 210.717 87.3622L212.976 87.8082C214.113 88.0354 214.632 88.4478 214.648 89.0959C214.632 89.8618 213.791 90.409 212.526 90.409C211.236 90.409 210.378 89.8618 210.157 88.8097L206.6 88.9949C206.938 91.4694 209.062 92.9928 212.517 92.9928C215.897 92.9928 218.317 91.2843 218.325 88.734C218.317 86.8655 217.086 85.7461 214.556 85.2326L212.194 84.7614C210.981 84.5004 210.531 84.0881 210.539 83.4652C210.531 82.6909 211.413 82.1858 212.534 82.1858C213.791 82.1858 214.538 82.8677 214.717 83.7009L218.028 83.4989Z" fill="black"></path></g><defs><clipPath id="clip0_1_6932"><rect width="137" height="37" fill="white" transform="translate(88 56)"></rect></clipPath></defs></svg> 