<?xml version="1.0" encoding="UTF-8"?> <svg xmlns="http://www.w3.org/2000/svg" width="313" height="150" viewBox="0 0 313 150" fill="none"><g clip-path="url(#clip0_1_6921)"><path d="M94.0239 79.1126C89.9416 73.1171 89.3074 62.3153 96.4446 58.3558C100.04 56.3603 104.739 56.563 107.963 59.1982C109.254 60.2567 109.678 61.4099 110.661 62.6711C112.528 56.6126 120.84 55.4009 125.507 59.072C130.286 62.8333 130.532 69.545 128.758 74.9504C128.316 76.2973 127.093 80.1126 125.275 78.8964L124.926 75.527L124.087 75.4774L123.466 74.1846L114.596 74.1351L114.212 75.4774L113.341 75.5L113.019 78.8918C112.814 79.1937 111.822 79.2027 111.541 79.0045C111.393 78.9009 111.139 76.3018 111.112 75.8333C110.92 72.6531 111.108 69.0315 110.674 65.9144C110.634 65.6396 110.272 64.6846 110.103 64.6846L109.54 66.1441L109.004 78.8918L106.646 79.1036C106.842 77.1036 106.61 77.8423 105.681 77.2657C104.752 76.6891 105.574 74.59 105.534 73.8288C105.529 73.6982 105.158 73.7342 105.096 73.536C104.56 71.8693 104.605 70.6846 102.505 70.1036L102.068 68.2882L101.925 70.063C100.111 70.4234 99.1601 71.8964 99.0127 73.6711L98.3785 73.6982L98.6152 77.1621L97.5121 77.554L97.4853 79.0991H94.0239V79.1126Z" fill="black"></path><path d="M113.898 82.2661C114.282 82.3517 115.304 83.3247 115.809 83.4913C118.377 84.3382 121.732 82.3742 124.282 82.3787C121.035 86.203 116.537 90.0679 112.066 92.3562C109.766 93.5319 109.503 92.9508 107.386 91.7661C103.143 89.3967 99.3017 86.0679 96.1484 82.3787L98.3727 82.2571C98.2655 81.2165 98.7836 81.0048 99.6947 80.8922C99.86 80.703 99.6098 79.2931 99.726 78.8201C99.7662 78.6535 100.115 78.6895 100.159 78.5048C100.525 77.0679 100.141 76.167 102.29 76.167C105.005 76.167 104.567 78.8967 104.634 80.9147L105.769 81.0093L105.979 82.2661H113.907H113.898Z" fill="black"></path><path d="M227.455 77.7614H215.396C216.053 80.5812 219.331 81.365 221.72 80.1983C222.029 80.0452 222.806 79.3379 222.877 79.3379H227.009C224.762 84.901 216.816 86.0091 213.069 81.347C207.665 74.6217 214.356 65.0767 222.605 68.1262C226.352 69.5136 228.232 73.9461 227.455 77.7614ZM223.659 74.1578C222.368 70.2434 216.464 70.1307 215.396 74.1578H223.659Z" fill="black"></path><path d="M146.391 83.8425V81.8154C142.858 85.7794 136.181 84.41 134.22 79.5632C131.384 72.5406 137.744 64.7884 144.899 68.5677L146.386 70.1037C146.453 69.4235 146.136 68.5587 146.726 68.0767H149.964L149.74 83.8425H146.391ZM140.75 71.2839C135.654 72.1668 136.288 81.7659 142.876 80.6352C148.007 79.7569 147.561 70.0992 140.75 71.2839Z" fill="black"></path><path d="M196.637 68.0765H199.986V83.5044C199.642 84.0179 196.913 83.9503 196.623 83.7431L196.302 81.8107C194.542 84.2566 190.973 84.6035 188.316 83.5584C183.34 81.608 182.295 74.6305 185.377 70.5675C188.039 67.063 193.381 66.3107 196.302 69.8693C196.86 69.4368 196.592 68.6846 196.637 68.072V68.0765ZM190.768 71.2792C186.261 72.2071 186.288 79.8242 190.991 80.635C198.28 81.8873 198.155 69.7566 190.768 71.2792Z" fill="black"></path><path d="M181.899 73.2569H177.656C177.522 73.2569 177.164 72.0001 175.695 71.5182C171.515 70.1533 168.267 74.0272 169.889 78.0497C170.992 80.7929 174.632 81.5542 176.874 79.7839C177.392 79.374 177.589 78.6578 177.656 78.6578H181.899C178.871 88.5182 163.707 84.392 165.878 74.0992C167.602 65.9191 179.683 65.2704 181.899 73.2524V73.2569Z" fill="black"></path><path d="M156.664 62.8965H152.867V83.8424H156.664V62.8965Z" fill="black"></path><path d="M163.363 62.8965H159.566V83.8424H163.363V62.8965Z" fill="black"></path><path d="M210.037 67.6261V71.2297C208.576 71.0495 206.687 72.5855 206.687 74.045V83.8423H202.891V68.0765H206.24L206.352 69.4279C207.361 68.2837 208.38 67.3603 210.037 67.6261Z" fill="black"></path></g><defs><clipPath id="clip0_1_6921"><rect width="137" height="36" fill="white" transform="translate(91 57)"></rect></clipPath></defs></svg> 