<?xml version="1.0" encoding="UTF-8"?> <svg xmlns="http://www.w3.org/2000/svg" width="313" height="150" viewBox="0 0 313 150" fill="none"><g clip-path="url(#clip0_273_2806)"><path d="M121.514 58.092L114.892 76.7106H118.77L119.983 73.1678H127.316L128.53 76.7106H132.435L125.813 58.092H121.512H121.514ZM120.986 70.184L123.65 62.4064L126.313 70.184H120.984H120.986ZM146.257 72.5014C146.257 73.3549 146.023 74.1172 145.558 74.793C145.092 75.4689 144.423 75.995 143.552 76.3785C142.681 76.7597 141.667 76.9514 140.504 76.9514C139.341 76.9514 138.234 76.7339 137.284 76.299C136.335 75.864 135.582 75.2748 135.029 74.5288C134.475 73.7829 134.172 72.9574 134.118 72.0524H137.838C137.907 72.6207 138.185 73.0907 138.669 73.4648C139.154 73.8366 139.756 74.0237 140.476 74.0237C141.196 74.0237 141.729 73.8811 142.125 73.5981C142.521 73.3152 142.718 72.9504 142.718 72.5061C142.718 72.0267 142.477 71.6666 141.993 71.4281C141.509 71.1895 140.74 70.9276 139.684 70.6424C138.593 70.3758 137.701 70.1022 137.007 69.8169C136.312 69.5339 135.714 69.0967 135.214 68.512C134.714 67.9251 134.461 67.1371 134.461 66.1409C134.461 65.3248 134.695 64.5788 135.161 63.903C135.626 63.2272 136.295 62.6964 137.166 62.3059C138.037 61.9154 139.061 61.7189 140.24 61.7189C141.982 61.7189 143.371 62.1586 144.409 63.0378C145.446 63.9171 146.018 65.1026 146.123 66.5945H142.588C142.535 66.0076 142.294 65.5423 141.863 65.1962C141.433 64.8501 140.856 64.677 140.136 64.677C139.466 64.677 138.952 64.801 138.593 65.0488C138.232 65.2967 138.051 65.6428 138.051 66.0871C138.051 66.5852 138.297 66.9617 138.79 67.2189C139.283 67.4761 140.048 67.738 141.085 68.0046C142.141 68.2712 143.01 68.5471 143.698 68.8301C144.383 69.1154 144.976 69.555 145.479 70.1489C145.979 70.7452 146.239 71.5286 146.257 72.5061V72.5014ZM153.036 66.0427C152.42 66.8144 152.112 67.9111 152.112 69.3328C152.112 70.7546 152.42 71.8233 153.036 72.5949C153.652 73.3666 154.486 73.7525 155.542 73.7525C157.036 73.7525 158.014 73.0766 158.47 71.7274H162.454C162.048 73.3245 161.249 74.5943 160.054 75.5367C158.859 76.4791 157.363 76.9491 155.57 76.9491C154.162 76.9491 152.914 76.6334 151.825 76.0044C150.734 75.3753 149.882 74.4867 149.266 73.3409C148.65 72.1951 148.342 70.8598 148.342 69.3328C148.342 67.8058 148.65 66.4706 149.266 65.3248C149.882 64.179 150.734 63.2927 151.825 62.6613C152.916 62.0323 154.164 61.7166 155.57 61.7166C157.381 61.7166 158.88 62.1749 160.068 63.0893C161.256 64.0036 162.051 65.2874 162.456 66.9383H158.472C158.261 66.2999 157.905 65.7971 157.404 65.4347C156.904 65.0699 156.283 64.8875 155.545 64.8875C154.488 64.8875 153.655 65.2733 153.039 66.045L153.036 66.0427ZM175.287 62.6216C174.187 62.0183 172.943 61.7166 171.554 61.7166C170.164 61.7166 168.837 62.0276 167.727 62.6496C166.62 63.2716 165.756 64.1579 165.143 65.3131C164.526 66.4683 164.218 67.8082 164.218 69.3352C164.218 70.8622 164.531 72.1764 165.154 73.3292C165.777 74.4844 166.648 75.3753 167.767 76.0067C168.883 76.6381 170.145 76.9514 171.551 76.9514C173.293 76.9514 174.761 76.4931 175.956 75.5788C177.152 74.6644 177.962 73.4976 178.384 72.0758H174.4C173.819 73.2661 172.844 73.86 171.472 73.86C170.523 73.86 169.721 73.5584 169.073 72.9551C168.422 72.3517 168.054 71.5169 167.966 70.4506H178.65C178.72 70.025 178.757 69.5456 178.757 69.0125C178.757 67.5743 178.453 66.2999 177.846 65.1915C177.24 64.0807 176.387 63.2249 175.287 62.6216ZM167.994 67.9485C168.135 66.9547 168.517 66.1783 169.14 65.6171C169.765 65.0582 170.534 64.7776 171.449 64.7776C172.417 64.7776 173.235 65.0676 173.902 65.6428C174.569 66.2204 174.914 66.9874 174.93 67.9462H167.991L167.994 67.9485ZM185.14 76.7106H181.446V61.9551H185.14V63.7931C185.633 63.1547 186.261 62.652 187.025 62.2895C187.789 61.9247 188.63 61.7423 189.545 61.7423C191.287 61.7423 192.693 62.2965 193.765 63.4073C194.837 64.518 195.375 66.0661 195.375 68.0561V76.7129H191.68V68.5635C191.68 67.3919 191.391 66.4917 190.81 65.8603C190.228 65.2312 189.438 64.9156 188.436 64.9156C187.433 64.9156 186.611 65.2312 186.022 65.8603C185.432 66.4917 185.137 67.3919 185.137 68.5635V76.7129L185.14 76.7106ZM207.486 76.285C208.312 75.8407 208.954 75.2561 209.41 74.5265V76.7106H213.155V57H209.41V64.0059C208.901 63.3137 208.215 62.7595 207.354 62.341C206.492 61.9247 205.586 61.7143 204.637 61.7143C203.388 61.7143 202.253 62.0253 201.234 62.6473C200.215 63.2693 199.409 64.1556 198.821 65.3108C198.233 66.4659 197.936 67.7871 197.936 69.2791C197.936 70.771 198.23 72.1249 198.821 73.2871C199.409 74.4493 200.215 75.3519 201.234 75.9903C202.253 76.6287 203.379 76.9491 204.611 76.9491C205.702 76.9491 206.659 76.7269 207.486 76.2826V76.285ZM202.249 71.6105C201.888 70.944 201.709 70.1677 201.709 69.2791C201.709 68.3905 201.89 67.6234 202.249 66.9757C202.61 66.328 203.08 65.8346 203.659 65.4978C204.241 65.1611 204.873 64.9927 205.559 64.9927C206.244 64.9927 206.886 65.1658 207.483 65.5119C208.081 65.8579 208.556 66.356 208.908 67.0038C209.26 67.6515 209.436 68.4279 209.436 69.3352C209.436 70.2425 209.26 71.0188 208.908 71.6666C208.556 72.3143 208.081 72.8124 207.483 73.1585C206.886 73.5046 206.244 73.6776 205.559 73.6776C204.873 73.6776 204.262 73.4999 203.673 73.1445C203.083 72.789 202.608 72.2792 202.249 71.6128V71.6105ZM219.105 75.9903C220.118 76.6287 221.239 76.9491 222.468 76.9491C223.559 76.9491 224.52 76.7222 225.357 76.2686C226.193 75.8149 226.848 75.2444 227.323 74.5499V76.7082H231.043V61.9551H227.323V64.0597C226.83 63.3862 226.176 62.825 225.357 62.3807C224.539 61.9364 223.585 61.7143 222.494 61.7143C221.245 61.7143 220.115 62.0253 219.103 62.6473C218.091 63.2693 217.292 64.1556 216.704 65.3108C216.115 66.4659 215.819 67.7871 215.819 69.2791C215.819 70.771 216.113 72.1249 216.704 73.2871C217.292 74.4493 218.093 75.3519 219.103 75.9903H219.105ZM220.134 66.9757C220.495 66.328 220.965 65.8346 221.544 65.4978C222.126 65.1611 222.758 64.9927 223.443 64.9927C224.129 64.9927 224.771 65.1658 225.368 65.5119C225.966 65.8579 226.441 66.356 226.793 67.0038C227.145 67.6515 227.321 68.4279 227.321 69.3352C227.321 70.2425 227.145 71.0188 226.793 71.6666C226.441 72.3143 225.966 72.8124 225.368 73.1585C224.771 73.5046 224.129 73.6776 223.443 73.6776C222.758 73.6776 222.146 73.4999 221.558 73.1445C220.968 72.789 220.493 72.2792 220.134 71.6128C219.772 70.9463 219.594 70.17 219.594 69.2814C219.594 68.3928 219.775 67.6258 220.134 66.978V66.9757ZM242.463 72.5014C242.463 72.022 242.222 71.6619 241.738 71.4234C241.254 71.1849 240.485 70.923 239.429 70.6377C238.338 70.3711 237.447 70.0975 236.752 69.8122C236.057 69.5293 235.459 69.092 234.959 68.5074C234.459 67.9204 234.206 67.1324 234.206 66.1362C234.206 65.3201 234.44 64.5741 234.906 63.8983C235.371 63.2225 236.041 62.6917 236.912 62.3012C237.782 61.9107 238.806 61.7143 239.985 61.7143C241.727 61.7143 243.116 62.1539 244.154 63.0331C245.192 63.9124 245.764 65.098 245.868 66.5899H242.334C242.28 66.0029 242.039 65.5376 241.609 65.1915C241.178 64.8454 240.601 64.6724 239.881 64.6724C239.212 64.6724 238.697 64.7963 238.338 65.0442C237.977 65.292 237.799 65.6381 237.799 66.0824C237.799 66.5805 238.044 66.957 238.538 67.2142C239.031 67.4715 239.795 67.7334 240.833 67.9999C241.889 68.2665 242.757 68.5424 243.445 68.8254C244.131 69.1107 244.724 69.5503 245.226 70.1443C245.727 70.7406 245.986 71.5239 246.005 72.5014C246.005 73.3549 245.771 74.1172 245.305 74.793C244.84 75.4689 244.17 75.995 243.299 76.3785C242.429 76.7597 241.414 76.9514 240.251 76.9514C239.089 76.9514 237.984 76.7339 237.032 76.299C236.082 75.864 235.33 75.2748 234.776 74.5288C234.223 73.7829 233.919 72.9574 233.866 72.0524H237.586C237.655 72.6207 237.933 73.0907 238.417 73.4648C238.901 73.8366 239.503 74.0237 240.224 74.0237C240.944 74.0237 241.477 73.8811 241.873 73.5981C242.269 73.3152 242.466 72.9504 242.466 72.5061L242.463 72.5014ZM121.843 85.3791C121.303 85.047 120.701 84.8833 120.036 84.8833C119.464 84.8833 118.957 85.0026 118.512 85.2388C118.068 85.475 117.718 85.7836 117.466 86.1601V82.3719H115.497V92.8737H117.466V91.7536C117.727 92.1231 118.077 92.4224 118.512 92.6539C118.948 92.8854 119.457 93.0023 120.036 93.0023C120.701 93.0023 121.303 92.8316 121.843 92.4902C122.383 92.1488 122.809 91.6694 123.121 91.0498C123.436 90.4301 123.592 89.7192 123.592 88.9148C123.592 88.1104 123.434 87.4042 123.121 86.7938C122.806 86.1835 122.38 85.7135 121.843 85.3814V85.3791ZM121.294 90.1635C121.102 90.5143 120.849 90.7832 120.534 90.9726C120.219 91.162 119.881 91.2555 119.515 91.2555C119.149 91.2555 118.825 91.1643 118.51 90.9796C118.195 90.7949 117.943 90.5283 117.75 90.1775C117.558 89.8268 117.463 89.4152 117.463 88.9428C117.463 88.4705 117.558 88.0589 117.75 87.7082C117.943 87.3574 118.195 87.0908 118.51 86.9061C118.825 86.7213 119.159 86.6301 119.515 86.6301C119.872 86.6301 120.219 86.7213 120.534 86.8991C120.847 87.0791 121.102 87.341 121.294 87.6871C121.486 88.0332 121.581 88.4424 121.581 88.9148C121.581 89.3871 121.484 89.8127 121.294 90.1635ZM130.394 85.012H132.377V92.8737H130.394V91.8799C130.142 92.2213 129.81 92.4879 129.403 92.682C128.995 92.8761 128.553 92.9719 128.076 92.9719C127.466 92.9719 126.927 92.841 126.459 92.5814C125.991 92.3219 125.623 91.9384 125.357 91.4309C125.09 90.9258 124.956 90.3225 124.956 89.621V85.0096H126.925V89.338C126.925 89.9624 127.08 90.4418 127.388 90.7785C127.696 91.1152 128.12 91.2813 128.652 91.2813C129.185 91.2813 129.623 91.1129 129.931 90.7785C130.241 90.4418 130.394 89.9624 130.394 89.338V85.0096V85.012ZM139.946 89.3754C140.212 89.6935 140.351 90.1121 140.36 90.6312C140.36 91.0848 140.235 91.4917 139.987 91.8518C139.74 92.212 139.383 92.4926 138.92 92.696C138.456 92.8994 137.914 93 137.296 93C136.678 93 136.087 92.8831 135.582 92.6516C135.077 92.4201 134.677 92.1044 134.38 91.7069C134.086 91.3093 133.924 90.8697 133.896 90.388H135.879C135.916 90.6896 136.064 90.9422 136.321 91.141C136.578 91.3397 136.9 91.4379 137.284 91.4379C137.669 91.4379 137.951 91.3631 138.162 91.2111C138.373 91.0591 138.48 90.865 138.48 90.6288C138.48 90.374 138.35 90.1822 138.093 90.0536C137.836 89.925 137.426 89.787 136.863 89.635C136.282 89.4924 135.807 89.3474 135.436 89.1954C135.066 89.0434 134.748 88.8119 134.48 88.5009C134.213 88.1899 134.079 87.769 134.079 87.2381C134.079 86.8032 134.204 86.4057 134.452 86.0455C134.7 85.6854 135.056 85.4025 135.52 85.1943C135.983 84.9862 136.529 84.8833 137.157 84.8833C138.086 84.8833 138.825 85.1172 139.378 85.5849C139.932 86.0525 140.235 86.6839 140.291 87.479H138.408C138.38 87.168 138.25 86.9178 138.021 86.733C137.792 86.5483 137.484 86.4571 137.099 86.4571C136.742 86.4571 136.469 86.5226 136.277 86.6559C136.085 86.7892 135.99 86.9739 135.99 87.2101C135.99 87.4743 136.122 87.6754 136.383 87.8134C136.645 87.9513 137.053 88.0893 137.606 88.232C138.169 88.3746 138.632 88.5196 138.998 88.6716C139.364 88.8236 139.679 89.0574 139.948 89.3731L139.946 89.3754ZM141.977 85.012H143.946V92.8737H141.977V85.012ZM143.839 82.0819C144.068 82.3041 144.184 82.58 144.184 82.9121C144.184 83.2441 144.068 83.52 143.839 83.7422C143.61 83.9643 143.32 84.0766 142.975 84.0766C142.63 84.0766 142.341 83.9643 142.111 83.7422C141.882 83.52 141.766 83.2441 141.766 82.9121C141.766 82.58 141.88 82.3041 142.111 82.0819C142.341 81.8598 142.628 81.7475 142.975 81.7475C143.323 81.7475 143.61 81.8598 143.839 82.0819ZM152.448 85.7836C153.02 86.3753 153.305 87.2007 153.305 88.26V92.8714H151.336V88.5289C151.336 87.9046 151.181 87.4252 150.873 87.0885C150.563 86.7517 150.141 86.5857 149.608 86.5857C149.076 86.5857 148.636 86.7541 148.323 87.0885C148.008 87.4252 147.853 87.9046 147.853 88.5289V92.8714H145.884V85.0096H147.853V85.9894C148.115 85.648 148.45 85.3814 148.858 85.1873C149.266 84.9932 149.713 84.8974 150.201 84.8974C151.13 84.8974 151.878 85.1943 152.45 85.7836H152.448ZM160.564 85.3651C159.978 85.0424 159.315 84.8833 158.574 84.8833C157.833 84.8833 157.127 85.0494 156.536 85.3791C155.945 85.7111 155.487 86.1835 155.158 86.7985C154.829 87.4135 154.667 88.1267 154.667 88.9405C154.667 89.7543 154.834 90.4535 155.165 91.0685C155.498 91.6835 155.962 92.1582 156.557 92.4949C157.152 92.8316 157.824 92.9977 158.574 92.9977C159.503 92.9977 160.283 92.7545 160.92 92.2681C161.557 91.7817 161.988 91.1597 162.213 90.402H160.091C159.781 91.0357 159.262 91.3538 158.53 91.3538C158.025 91.3538 157.597 91.1924 157.252 90.872C156.904 90.5493 156.707 90.105 156.661 89.5391H162.354C162.391 89.3123 162.41 89.0574 162.41 88.7721C162.41 88.0051 162.247 87.327 161.925 86.7354C161.601 86.1437 161.147 85.6878 160.561 85.3651H160.564ZM156.677 88.2039C156.751 87.6754 156.955 87.2592 157.289 86.9622C157.622 86.6652 158.032 86.5156 158.518 86.5156C159.033 86.5156 159.47 86.6699 159.825 86.9762C160.181 87.2826 160.364 87.6918 160.374 88.2039H156.677ZM169.476 89.3754C169.742 89.6935 169.881 90.1121 169.891 90.6312C169.891 91.0848 169.765 91.4917 169.518 91.8518C169.27 92.212 168.913 92.4926 168.45 92.696C167.987 92.8994 167.445 93 166.826 93C166.208 93 165.617 92.8831 165.112 92.6516C164.608 92.4201 164.207 92.1044 163.91 91.7069C163.616 91.3093 163.454 90.8697 163.426 90.388H165.409C165.446 90.6896 165.594 90.9422 165.851 91.141C166.108 91.3397 166.43 91.4379 166.815 91.4379C167.199 91.4379 167.482 91.3631 167.693 91.2111C167.903 91.0591 168.01 90.865 168.01 90.6288C168.01 90.374 167.88 90.1822 167.623 90.0536C167.366 89.925 166.956 89.787 166.393 89.635C165.812 89.4924 165.337 89.3474 164.967 89.1954C164.596 89.0434 164.279 88.8119 164.01 88.5009C163.744 88.1899 163.609 87.769 163.609 87.2381C163.609 86.8032 163.734 86.4057 163.982 86.0455C164.23 85.6854 164.587 85.4025 165.05 85.1943C165.513 84.9862 166.06 84.8833 166.687 84.8833C167.616 84.8833 168.355 85.1172 168.909 85.5849C169.462 86.0525 169.765 86.6839 169.821 87.479H167.938C167.91 87.168 167.781 86.9178 167.551 86.733C167.322 86.5483 167.014 86.4571 166.629 86.4571C166.273 86.4571 165.999 86.5226 165.807 86.6559C165.615 86.7892 165.52 86.9739 165.52 87.2101C165.52 87.4743 165.652 87.6754 165.914 87.8134C166.176 87.9513 166.583 88.0893 167.137 88.232C167.7 88.3746 168.163 88.5196 168.529 88.6716C168.895 88.8236 169.21 89.0574 169.478 89.3731L169.476 89.3754ZM177.135 89.3754C177.402 89.6935 177.541 90.1121 177.55 90.6312C177.55 91.0848 177.425 91.4917 177.177 91.8518C176.929 92.212 176.573 92.4926 176.109 92.696C175.646 92.8994 175.104 93 174.486 93C173.867 93 173.277 92.8831 172.772 92.6516C172.267 92.4201 171.866 92.1044 171.57 91.7069C171.276 91.3093 171.113 90.8697 171.086 90.388H173.068C173.105 90.6896 173.254 90.9422 173.511 91.141C173.768 91.3397 174.09 91.4379 174.474 91.4379C174.859 91.4379 175.141 91.3631 175.352 91.2111C175.563 91.0591 175.669 90.865 175.669 90.6288C175.669 90.374 175.54 90.1822 175.282 90.0536C175.025 89.925 174.615 89.787 174.053 89.635C173.471 89.4924 172.996 89.3474 172.626 89.1954C172.255 89.0434 171.938 88.8119 171.669 88.5009C171.403 88.1899 171.269 87.769 171.269 87.2381C171.269 86.8032 171.394 86.4057 171.642 86.0455C171.889 85.6854 172.246 85.4025 172.709 85.1943C173.172 84.9862 173.719 84.8833 174.347 84.8833C175.275 84.8833 176.014 85.1172 176.568 85.5849C177.121 86.0525 177.425 86.6839 177.48 87.479H175.597C175.57 87.168 175.44 86.9178 175.211 86.733C174.981 86.5483 174.673 86.4571 174.289 86.4571C173.932 86.4571 173.659 86.5226 173.467 86.6559C173.274 86.7892 173.179 86.9739 173.179 87.2101C173.179 87.4743 173.311 87.6754 173.573 87.8134C173.835 87.9513 174.243 88.0893 174.796 88.232C175.359 88.3746 175.822 88.5196 176.188 88.6716C176.554 88.8236 176.869 89.0574 177.138 89.3731L177.135 89.3754ZM188.141 89.3754C188.408 89.6935 188.547 90.1121 188.556 90.6312C188.556 91.0848 188.431 91.4917 188.183 91.8518C187.935 92.212 187.579 92.4926 187.115 92.696C186.652 92.8994 186.11 93 185.492 93C184.873 93 184.283 92.8831 183.778 92.6516C183.273 92.4201 182.872 92.1044 182.576 91.7069C182.282 91.3093 182.12 90.8697 182.092 90.388H184.074C184.111 90.6896 184.26 90.9422 184.517 91.141C184.774 91.3397 185.096 91.4379 185.48 91.4379C185.865 91.4379 186.147 91.3631 186.358 91.2111C186.569 91.0591 186.675 90.865 186.675 90.6288C186.675 90.374 186.546 90.1822 186.289 90.0536C186.031 89.925 185.622 89.787 185.059 89.635C184.477 89.4924 184.003 89.3474 183.632 89.1954C183.261 89.0434 182.944 88.8119 182.675 88.5009C182.409 88.1899 182.275 87.769 182.275 87.2381C182.275 86.8032 182.4 86.4057 182.648 86.0455C182.895 85.6854 183.252 85.4025 183.715 85.1943C184.179 84.9862 184.725 84.8833 185.353 84.8833C186.282 84.8833 187.02 85.1172 187.574 85.5849C188.128 86.0525 188.431 86.6839 188.487 87.479H186.604C186.576 87.168 186.446 86.9178 186.217 86.733C185.987 86.5483 185.679 86.4571 185.295 86.4571C184.938 86.4571 184.665 86.5226 184.473 86.6559C184.281 86.7892 184.186 86.9739 184.186 87.2101C184.186 87.4743 184.318 87.6754 184.579 87.8134C184.841 87.9513 185.249 88.0893 185.802 88.232C186.365 88.3746 186.828 88.5196 187.194 88.6716C187.56 88.8236 187.875 89.0574 188.144 89.3731L188.141 89.3754ZM195.724 85.3884C195.115 85.0517 194.437 84.8857 193.686 84.8857C192.936 84.8857 192.257 85.054 191.648 85.3884C191.039 85.7252 190.559 86.1999 190.207 86.8149C189.855 87.4299 189.679 88.1384 189.679 88.9428C189.679 89.7473 189.851 90.4558 190.194 91.0708C190.536 91.6858 191.006 92.1605 191.606 92.4972C192.206 92.834 192.88 93 193.631 93C194.381 93 195.076 92.8316 195.69 92.4972C196.303 92.1605 196.79 91.6858 197.151 91.0708C197.512 90.4558 197.693 89.7473 197.693 88.9428C197.693 88.1384 197.517 87.4299 197.165 86.8149C196.813 86.1999 196.334 85.7252 195.724 85.3884ZM195.386 90.2196C195.199 90.5704 194.948 90.8323 194.633 91.0077C194.318 91.183 193.985 91.2696 193.628 91.2696C193.065 91.2696 192.6 91.0685 192.229 90.6663C191.859 90.264 191.673 89.6888 191.673 88.9428C191.673 88.1969 191.863 87.6216 192.243 87.2194C192.623 86.8172 193.093 86.6161 193.656 86.6161C194.219 86.6161 194.694 86.8172 195.083 87.2194C195.472 87.6216 195.666 88.1969 195.666 88.9428C195.666 89.4433 195.572 89.8689 195.386 90.2196ZM199.138 82.3719H201.107V92.8737H199.138V82.3719ZM208.414 85.012H210.397V92.8737H208.414V91.8799C208.162 92.2213 207.831 92.4879 207.423 92.682C207.015 92.8761 206.573 92.9719 206.096 92.9719C205.487 92.9719 204.947 92.841 204.479 92.5814C204.011 92.3219 203.643 91.9384 203.377 91.4309C203.11 90.9258 202.976 90.3225 202.976 89.621V85.0096H204.945V89.338C204.945 89.9624 205.1 90.4418 205.408 90.7785C205.716 91.1152 206.14 91.2813 206.673 91.2813C207.205 91.2813 207.643 91.1129 207.951 90.7785C208.261 90.4418 208.414 89.9624 208.414 89.338V85.0096V85.012ZM214.628 85.012H216.372V86.6442H214.628V90.4464C214.628 90.7107 214.691 90.9024 214.818 91.0217C214.946 91.141 215.159 91.1994 215.458 91.1994H216.37V92.8737H215.133C213.475 92.8737 212.646 92.06 212.646 90.4324V86.6442H211.717V85.012H212.646V83.0687H214.628V85.012ZM219.652 82.0819C219.881 82.3041 219.997 82.58 219.997 82.9121C219.997 83.2441 219.881 83.52 219.652 83.7422C219.423 83.9643 219.133 84.0766 218.788 84.0766C218.443 84.0766 218.154 83.9643 217.924 83.7422C217.695 83.52 217.579 83.2441 217.579 82.9121C217.579 82.58 217.695 82.3041 217.924 82.0819C218.154 81.8598 218.441 81.7475 218.788 81.7475C219.136 81.7475 219.423 81.8598 219.652 82.0819ZM217.79 85.012H219.759V92.8737H217.79V85.012ZM227.249 85.3884C226.64 85.0517 225.961 84.8857 225.211 84.8857C224.46 84.8857 223.782 85.054 223.172 85.3884C222.563 85.7252 222.084 86.1999 221.732 86.8149C221.38 87.4299 221.204 88.1384 221.204 88.9428C221.204 89.7473 221.375 90.4558 221.718 91.0708C222.061 91.6858 222.531 92.1605 223.131 92.4972C223.731 92.834 224.405 93 225.155 93C225.905 93 226.6 92.8316 227.214 92.4972C227.828 92.1605 228.314 91.6858 228.676 91.0708C229.037 90.4558 229.218 89.7473 229.218 88.9428C229.218 88.1384 229.042 87.4299 228.689 86.8149C228.337 86.1999 227.858 85.7252 227.249 85.3884ZM226.913 90.2196C226.725 90.5704 226.475 90.8323 226.16 91.0077C225.845 91.183 225.512 91.2696 225.155 91.2696C224.592 91.2696 224.127 91.0685 223.756 90.6663C223.386 90.264 223.2 89.6888 223.2 88.9428C223.2 88.1969 223.39 87.6216 223.77 87.2194C224.15 86.8172 224.62 86.6161 225.183 86.6161C225.746 86.6161 226.22 86.8172 226.61 87.2194C226.999 87.6216 227.193 88.1969 227.193 88.9428C227.193 89.4433 227.098 89.8689 226.913 90.2196ZM237.229 85.7836C237.801 86.3753 238.086 87.2007 238.086 88.26V92.8714H236.117V88.5289C236.117 87.9046 235.962 87.4252 235.654 87.0885C235.344 86.7517 234.922 86.5857 234.389 86.5857C233.857 86.5857 233.417 86.7541 233.104 87.0885C232.789 87.4252 232.634 87.9046 232.634 88.5289V92.8714H230.665V85.0096H232.634V85.9894C232.896 85.648 233.231 85.3814 233.639 85.1873C234.047 84.9932 234.494 84.8974 234.982 84.8974C235.911 84.8974 236.659 85.1943 237.231 85.7836H237.229ZM245.585 89.3754C245.852 89.6935 245.991 90.1121 246 90.6312C246 91.0848 245.875 91.4917 245.627 91.8518C245.379 92.212 245.023 92.4926 244.559 92.696C244.096 92.8994 243.554 93 242.936 93C242.317 93 241.727 92.8831 241.222 92.6516C240.715 92.4201 240.316 92.1044 240.02 91.7069C239.723 91.3093 239.564 90.8697 239.536 90.388H241.518C241.555 90.6896 241.704 90.9422 241.961 91.141C242.218 91.3397 242.54 91.4379 242.924 91.4379C243.309 91.4379 243.591 91.3631 243.802 91.2111C244.013 91.0591 244.119 90.865 244.119 90.6288C244.119 90.374 243.99 90.1822 243.733 90.0536C243.475 89.925 243.066 89.787 242.503 89.635C241.921 89.4924 241.447 89.3474 241.076 89.1954C240.705 89.0434 240.388 88.8119 240.119 88.5009C239.851 88.1899 239.719 87.769 239.719 87.2381C239.719 86.8032 239.844 86.4057 240.092 86.0455C240.339 85.6854 240.696 85.4025 241.159 85.1943C241.623 84.9862 242.169 84.8833 242.797 84.8833C243.726 84.8833 244.464 85.1172 245.018 85.5849C245.572 86.0525 245.875 86.6839 245.931 87.479H244.048C244.02 87.168 243.89 86.9178 243.661 86.733C243.431 86.5483 243.123 86.4571 242.741 86.4571C242.385 86.4571 242.111 86.5226 241.919 86.6559C241.727 86.7892 241.632 86.9739 241.632 87.2101C241.632 87.4743 241.764 87.6754 242.026 87.8134C242.287 87.9513 242.695 88.0893 243.248 88.232C243.811 88.3746 244.275 88.5196 244.64 88.6716C245.006 88.8236 245.321 89.0574 245.59 89.3731L245.585 89.3754ZM102.756 85.3417C102.756 89.2655 99.6061 92.4481 95.7174 92.4481C91.8286 92.4481 88.6787 89.2679 88.6787 85.3417C88.6787 81.4155 91.8286 78.2352 95.7174 78.2352C99.6061 78.2352 102.756 81.4155 102.756 85.3417ZM89.8553 68.816L78.4277 92.4481H67L84.1415 57H95.5691L89.8553 68.816Z" fill="black"></path></g><defs><clipPath id="clip0_273_2806"><rect width="179" height="36" fill="white" transform="translate(67 57)"></rect></clipPath></defs></svg> 