<?xml version="1.0" encoding="UTF-8"?> <svg xmlns="http://www.w3.org/2000/svg" width="313" height="150" viewBox="0 0 313 150" fill="none"><path d="M113.006 82.1664V67.5304H123.088V70.4929H116.441V73.6458H121.914V76.3883H116.441V82.1518H113.006V82.1664ZM124.888 82.1664V67.5304H131.58C132.249 67.5268 132.909 67.6721 133.513 67.9557C134.672 68.5187 135.578 69.4854 136.056 70.6688C136.294 71.2364 136.421 71.8437 136.428 72.4579C136.427 72.898 136.372 73.3364 136.264 73.7631C136.155 74.1767 135.995 74.5756 135.788 74.951C135.379 75.6871 134.765 76.2926 134.019 76.6962L137.275 82.137H133.409L130.569 77.4148H128.338V82.137H124.888V82.1664ZM128.323 74.4964H131.461C131.883 74.4886 132.273 74.2741 132.502 73.9245C132.812 73.5038 132.969 72.9923 132.948 72.4727C132.948 71.8713 132.784 71.3873 132.442 71.0354C132.1 70.6835 131.743 70.4928 131.357 70.4928H128.323V74.4964ZM145.395 82.2837C144.357 82.2943 143.33 82.0737 142.391 81.6384C141.511 81.2353 140.722 80.6617 140.071 79.952C139.426 79.2612 138.921 78.4547 138.584 77.5762C138.231 76.6987 138.049 75.7632 138.049 74.8191C138.044 73.8636 138.231 72.9166 138.599 72.0327C138.959 71.1567 139.484 70.3557 140.146 69.6715C140.82 68.9901 141.616 68.4381 142.495 68.0437C143.429 67.6265 144.444 67.4162 145.469 67.4278C146.508 67.41 147.536 67.6309 148.473 68.0731C149.353 68.4763 150.142 69.0497 150.793 69.7596C151.431 70.4617 151.934 71.2715 152.28 72.15C152.62 73.0205 152.797 73.9449 152.801 74.8777C152.805 75.8332 152.618 76.7802 152.251 77.6641C151.896 78.5394 151.376 79.3405 150.719 80.0252C150.051 80.7109 149.259 81.2679 148.384 81.6678C147.445 82.0836 146.425 82.2937 145.395 82.2837ZM141.529 74.8631C141.53 75.4199 141.615 75.9734 141.781 76.5056C141.938 77.0163 142.19 77.4938 142.525 77.9135C142.85 78.3289 143.267 78.6652 143.744 78.896C144.266 79.151 144.843 79.2768 145.425 79.2627C146.02 79.2762 146.608 79.1398 147.135 78.8667C147.612 78.615 148.028 78.2649 148.354 77.8401C148.683 77.4154 148.925 76.9325 149.068 76.4176C149.221 75.893 149.301 75.3503 149.306 74.8044C149.305 74.2476 149.219 73.6941 149.053 73.1619C148.897 72.6479 148.639 72.1693 148.295 71.754C147.165 70.4373 145.272 70.0447 143.7 70.8008C143.229 71.0422 142.818 71.3825 142.495 71.7981C142.165 72.2184 141.918 72.6959 141.767 73.2059C141.617 73.7462 141.537 74.303 141.529 74.8631ZM158.214 73.7925V82.1664H154.779V67.5304H157.456L164.371 76.1243V67.5304H167.806V82.1664H165.04L158.214 73.7925ZM181.963 70.4929H177.442V82.1664H174.021V70.4929H169.486V67.5304H181.963V70.4929Z" fill="black"></path><path d="M192.536 71.8137C192.405 71.6935 192.261 71.59 192.104 71.5057C191.801 71.3314 191.489 71.1747 191.168 71.0365C190.765 70.8652 190.354 70.7183 189.933 70.5965C189.497 70.4757 189.048 70.4117 188.595 70.4059C187.376 70.4059 186.751 70.8165 186.751 71.6231C186.74 71.8444 186.808 72.0627 186.944 72.239C187.106 72.422 187.303 72.5716 187.524 72.679C187.835 72.8296 188.158 72.9524 188.49 73.0456C188.877 73.1629 189.338 73.2802 189.844 73.4123C190.494 73.587 191.135 73.7975 191.762 74.0429C192.292 74.2456 192.785 74.5329 193.219 74.8934C193.616 75.231 193.932 75.6519 194.142 76.1253C194.375 76.6724 194.487 77.2625 194.468 77.8558C194.489 78.583 194.326 79.3036 193.993 79.9529C193.696 80.5055 193.268 80.9786 192.743 81.3315C192.201 81.6906 191.596 81.9491 190.96 82.0941C190.282 82.2542 189.588 82.3329 188.893 82.3287C188.335 82.3256 187.779 82.2865 187.227 82.2114C186.66 82.1238 186.099 82.0063 185.546 81.8595C185.008 81.702 184.482 81.5109 183.97 81.2875C183.476 81.0775 183.002 80.8222 182.557 80.5249L184.059 77.5771C184.225 77.7318 184.41 77.8649 184.609 77.9731C184.975 78.1932 185.358 78.3845 185.754 78.5451C186.246 78.7537 186.753 78.9253 187.271 79.0583C187.824 79.2044 188.394 79.2783 188.967 79.2783C190.186 79.2783 190.781 78.9117 190.781 78.1785C190.79 77.9267 190.694 77.6823 190.513 77.5039C190.292 77.2997 190.034 77.1358 189.755 77.0199C189.385 76.8566 189.002 76.7242 188.609 76.6239C188.163 76.5066 187.688 76.36 187.182 76.2133C186.569 76.0376 185.972 75.8119 185.397 75.5387C184.938 75.328 184.516 75.0458 184.148 74.7028C183.831 74.3956 183.582 74.0258 183.419 73.6175C183.251 73.1572 183.17 72.6699 183.181 72.1804C183.169 71.4776 183.316 70.7809 183.612 70.1419C183.897 69.5656 184.303 69.0557 184.803 68.6461C185.321 68.236 185.91 67.923 186.542 67.7221C187.221 67.5153 187.929 67.4115 188.639 67.4142C189.154 67.4113 189.667 67.4605 190.171 67.5608C190.659 67.657 191.14 67.7794 191.613 67.9274C192.053 68.0666 192.48 68.2382 192.892 68.4407C193.294 68.6313 193.65 68.822 193.993 69.0127L192.536 71.8137ZM196.491 82.1674V67.5315H199.912V82.1674H196.491ZM212.954 80.7302C211.903 81.7271 210.5 82.2798 209.043 82.2701C208.094 82.2715 207.152 82.087 206.277 81.7275C205.422 81.3667 204.65 80.8435 204.002 80.1876C203.34 79.501 202.82 78.694 202.469 77.8118C202.085 76.8347 201.894 75.7945 201.904 74.7467C201.902 73.771 202.094 72.8045 202.469 71.9017C202.827 71.0292 203.357 70.2363 204.031 69.5699C205.426 68.1822 207.329 67.41 209.311 67.4288C210.693 67.4288 211.898 67.7074 212.924 68.2794C213.918 68.8157 214.725 69.6329 215.243 70.6259L212.7 72.5176C212.379 71.8741 211.872 71.3385 211.243 70.9778C210.621 70.6182 209.912 70.4307 209.191 70.4352C208.652 70.432 208.118 70.5472 207.629 70.7725C207.166 71.0047 206.755 71.3292 206.426 71.7257C206.081 72.1439 205.82 72.6212 205.652 73.1336C205.47 73.6928 205.38 74.2769 205.384 74.8641C205.38 75.4584 205.48 76.049 205.682 76.6093C205.858 77.1225 206.136 77.596 206.5 78.0025C206.841 78.3982 207.268 78.7138 207.749 78.9264C208.253 79.1498 208.802 79.26 209.355 79.249C210.693 79.249 211.898 78.6331 212.968 77.4158V76.9612H210.083V74.5121H215.809V82.1674H212.968L212.954 80.7302ZM221.489 73.7935V82.1674H218.069V67.5315H220.746L227.661 76.1253V67.5315H231.096V82.1674H228.331L221.489 73.7935ZM242.83 71.8137C242.699 71.6935 242.555 71.59 242.398 71.5057C242.095 71.3314 241.783 71.1747 241.462 71.0365C241.059 70.8653 240.647 70.7183 240.227 70.5965C239.792 70.4757 239.342 70.4117 238.889 70.4059C237.67 70.4059 237.045 70.8165 237.045 71.6231C237.034 71.8444 237.102 72.0627 237.238 72.239C237.4 72.422 237.597 72.5716 237.818 72.679C238.129 72.8296 238.451 72.9524 238.784 73.0456C239.171 73.1629 239.632 73.2802 240.138 73.4123C240.788 73.587 241.43 73.7975 242.056 74.0429C242.586 74.2456 243.079 74.5329 243.513 74.8934C243.91 75.231 244.226 75.6519 244.436 76.1253C244.669 76.6724 244.781 77.2625 244.762 77.8558C244.783 78.583 244.62 79.3036 244.287 79.9529C243.99 80.5055 243.562 80.9786 243.038 81.3315C242.5 81.6905 241.9 81.9491 241.268 82.0941C240.591 82.2542 239.897 82.3329 239.201 82.3287C238.644 82.3256 238.087 82.2865 237.535 82.2114C236.969 82.1238 236.408 82.0063 235.855 81.8595C235.318 81.702 234.792 81.5109 234.279 81.2875C233.784 81.0775 233.312 80.8222 232.866 80.5249L234.368 77.5772C234.533 77.7319 234.718 77.8649 234.918 77.9731C235.284 78.1932 235.667 78.3845 236.064 78.5451C236.555 78.7537 237.062 78.9253 237.58 79.0583C238.133 79.2044 238.703 79.2783 239.276 79.2783C240.495 79.2783 241.089 78.9117 241.089 78.1785C241.1 77.9267 241.002 77.6823 240.821 77.5039C240.6 77.2997 240.344 77.1358 240.063 77.0199C239.693 76.8566 239.311 76.7242 238.919 76.6239C238.488 76.5066 237.996 76.36 237.491 76.2133C236.882 76.0403 236.29 75.8146 235.721 75.5387C235.264 75.3245 234.842 75.0425 234.472 74.7028C234.155 74.3956 233.906 74.0258 233.743 73.6175C233.575 73.1572 233.494 72.6699 233.505 72.1804C233.492 71.4776 233.64 70.7809 233.936 70.1419C234.221 69.5656 234.626 69.0557 235.127 68.6461C235.645 68.2361 236.234 67.923 236.866 67.7221C237.545 67.5143 238.252 67.4104 238.963 67.4142C239.477 67.4113 239.991 67.4605 240.495 67.5608C240.982 67.657 241.464 67.7794 241.937 67.9274C242.376 68.0666 242.804 68.2382 243.216 68.4407C243.618 68.6313 243.974 68.822 244.317 69.0127L242.83 71.8137Z" fill="black"></path><path d="M82.4609 58.887L96.4195 72.7573L100.628 68.5753L86.6699 54.6943L82.4609 58.887Z" fill="black"></path><path d="M102.2 69.8469L106.408 74.0291L86.9626 93.3529L82.7537 89.1708L71.7361 78.2113L67.5273 74.0291L81.475 60.1587L85.684 64.3409L75.945 74.0291L86.9626 84.9888L102.2 69.8469Z" fill="black"></path><path d="M116.183 91.4798C116.183 91.2026 116.079 90.9692 115.872 90.8087C115.665 90.6336 115.354 90.5023 114.925 90.4148C114.511 90.3127 114.185 90.2105 113.949 90.0792C113.712 89.9479 113.549 89.802 113.431 89.6269C113.313 89.4519 113.268 89.233 113.268 88.9705C113.268 88.5619 113.431 88.2409 113.742 87.9783C114.052 87.7158 114.452 87.5845 114.94 87.5845C115.458 87.5845 115.887 87.7303 116.212 88.0076C116.523 88.2847 116.686 88.6494 116.686 89.1163H116.168C116.168 88.81 116.05 88.5619 115.813 88.3723C115.591 88.1826 115.295 88.0805 114.94 88.0805C114.6 88.0805 114.319 88.168 114.112 88.3285C113.904 88.489 113.801 88.7078 113.801 88.9705C113.801 89.233 113.89 89.4227 114.067 89.5685C114.245 89.7145 114.555 89.8312 115.014 89.9479C115.473 90.0647 115.813 90.1959 116.035 90.3272C116.257 90.4585 116.434 90.619 116.538 90.8087C116.641 90.9983 116.7 91.2172 116.7 91.4798C116.7 91.9029 116.538 92.253 116.212 92.5156C115.887 92.7783 115.473 92.9095 114.955 92.9095C114.407 92.9095 113.964 92.7636 113.623 92.4719C113.283 92.1801 113.105 91.8154 113.105 91.3777H113.623C113.638 91.7132 113.771 91.9612 114.008 92.1509C114.245 92.3405 114.555 92.4281 114.94 92.4281C115.31 92.4281 115.591 92.3405 115.828 92.1655C116.079 91.9612 116.183 91.7424 116.183 91.4798ZM122.381 92.7783H121.864V87.672H122.381V92.7783ZM121.76 86.1985C121.76 86.0963 121.79 86.0087 121.849 85.9358C121.908 85.8629 121.997 85.8191 122.115 85.8191C122.233 85.8191 122.322 85.8629 122.381 85.9358C122.441 86.0087 122.485 86.0963 122.485 86.1985C122.485 86.3005 122.455 86.3881 122.381 86.4611C122.322 86.534 122.233 86.5632 122.115 86.5632C122.012 86.5632 121.923 86.534 121.849 86.4611C121.79 86.3881 121.76 86.3005 121.76 86.1985ZM127.485 90.1814C127.485 89.3789 127.648 88.7516 127.974 88.2847C128.299 87.8178 128.743 87.5845 129.305 87.5845C129.941 87.5845 130.429 87.8616 130.77 88.416L130.799 87.6865H131.287V92.6907C131.287 93.3472 131.125 93.8724 130.77 94.2517C130.429 94.631 129.971 94.8208 129.394 94.8208C129.068 94.8208 128.758 94.7478 128.447 94.5873C128.136 94.4268 127.914 94.2226 127.737 93.9599L128.033 93.6245C128.403 94.1059 128.846 94.3539 129.349 94.3539C129.793 94.3539 130.134 94.2226 130.37 93.9308C130.607 93.6536 130.74 93.2597 130.755 92.7783V92.1363C130.415 92.6323 129.941 92.895 129.29 92.895C128.743 92.895 128.299 92.6615 127.974 92.1801C127.648 91.7132 127.471 91.0712 127.471 90.2689V90.1814H127.485ZM128.018 90.2834C128.018 90.94 128.136 91.4506 128.388 91.8299C128.624 92.2092 128.965 92.3989 129.409 92.3989C130.045 92.3989 130.503 92.0925 130.77 91.4652V89.0872C130.651 88.7661 130.474 88.5181 130.237 88.3431C130.015 88.168 129.734 88.0805 129.409 88.0805C128.965 88.0805 128.624 88.2701 128.388 88.6349C128.136 88.9996 128.018 89.554 128.018 90.2834ZM137.042 87.672L137.057 88.5474C137.235 88.2263 137.457 87.9929 137.723 87.8325C137.989 87.672 138.285 87.5845 138.596 87.5845C139.099 87.5845 139.483 87.7449 139.72 88.0513C139.957 88.3576 140.09 88.8245 140.09 89.4372V92.7928H139.572V89.4372C139.572 88.985 139.483 88.6349 139.306 88.416C139.128 88.1972 138.847 88.0805 138.463 88.0805C138.137 88.0805 137.856 88.1972 137.605 88.4014C137.353 88.6203 137.175 88.9121 137.057 89.2914V92.7928H136.539V87.6865H137.042V87.672ZM148.33 92.7783C148.271 92.6177 148.241 92.3843 148.227 92.0634C148.049 92.3259 147.812 92.5156 147.531 92.6615C147.25 92.8074 146.954 92.8657 146.629 92.8657C146.17 92.8657 145.815 92.7345 145.534 92.4572C145.253 92.1801 145.105 91.8299 145.105 91.4214C145.105 90.9254 145.297 90.5314 145.682 90.2397C146.067 89.9479 146.599 89.802 147.28 89.802H148.227V89.2185C148.227 88.8537 148.123 88.5619 147.916 88.3576C147.709 88.1534 147.413 88.0367 147.014 88.0367C146.659 88.0367 146.348 88.1388 146.111 88.3431C145.874 88.5474 145.756 88.7807 145.756 89.0725H145.238C145.238 88.664 145.416 88.3139 145.756 88.0221C146.111 87.7303 146.54 87.5845 147.043 87.5845C147.576 87.5845 147.975 87.7303 148.286 88.0076C148.596 88.2847 148.744 88.6932 148.759 89.2038V91.6257C148.759 92.1217 148.804 92.4865 148.907 92.7345V92.7928L148.33 92.7783ZM146.703 92.3843C147.043 92.3843 147.354 92.2968 147.635 92.1072C147.901 91.9174 148.108 91.6841 148.241 91.3777V90.2543H147.309C146.792 90.2543 146.377 90.371 146.081 90.5607C145.786 90.7649 145.638 91.0421 145.638 91.3923C145.638 91.6841 145.741 91.9174 145.934 92.1072C146.126 92.2821 146.392 92.3843 146.703 92.3843ZM153.834 90.1814C153.834 89.3789 153.996 88.7516 154.322 88.2847C154.647 87.8178 155.091 87.5845 155.653 87.5845C156.289 87.5845 156.778 87.8616 157.118 88.416L157.148 87.6865H157.636V92.6907C157.636 93.3472 157.458 93.8724 157.133 94.2517C156.792 94.631 156.334 94.8208 155.757 94.8208C155.431 94.8208 155.121 94.7478 154.825 94.5873C154.529 94.4268 154.292 94.2226 154.115 93.9599L154.411 93.6245C154.78 94.1059 155.224 94.3539 155.727 94.3539C156.171 94.3539 156.511 94.2226 156.748 93.9308C157 93.6536 157.118 93.2597 157.133 92.7783V92.1363C156.792 92.6323 156.304 92.895 155.668 92.895C155.121 92.895 154.677 92.6615 154.351 92.1801C154.026 91.7132 153.848 91.0712 153.848 90.2689V90.1814H153.834ZM154.366 90.2834C154.366 90.94 154.485 91.4506 154.721 91.8299C154.958 92.2092 155.298 92.3989 155.742 92.3989C156.378 92.3989 156.837 92.0925 157.103 91.4652V89.0872C156.985 88.7661 156.807 88.5181 156.57 88.3431C156.349 88.168 156.067 88.0805 155.742 88.0805C155.298 88.0805 154.958 88.2701 154.721 88.6349C154.485 88.9996 154.366 89.554 154.366 90.2834ZM164.722 92.8803C164.323 92.8803 163.953 92.7783 163.642 92.5594C163.317 92.3405 163.065 92.0488 162.888 91.6694C162.71 91.2901 162.621 90.8525 162.621 90.3856V90.1814C162.621 89.6853 162.71 89.2476 162.888 88.8537C163.065 88.4598 163.302 88.1534 163.627 87.9345C163.938 87.7012 164.278 87.599 164.648 87.599C165.225 87.599 165.669 87.8033 166.009 88.2263C166.349 88.6494 166.512 89.233 166.512 89.9625V90.2834H163.139V90.3856C163.139 90.9692 163.287 91.4506 163.598 91.8299C163.908 92.2092 164.293 92.4135 164.752 92.4135C165.033 92.4135 165.284 92.3552 165.491 92.253C165.698 92.1363 165.906 91.9612 166.068 91.7278L166.394 91.9905C166.009 92.574 165.462 92.8803 164.722 92.8803ZM164.633 88.0659C164.234 88.0659 163.908 88.2263 163.642 88.5327C163.376 88.8391 163.213 89.2622 163.154 89.7874H165.98V89.729C165.965 89.233 165.832 88.8391 165.595 88.5327C165.358 88.2263 165.033 88.0659 164.633 88.0659ZM181.173 91.4798C181.173 91.2026 181.069 90.9692 180.862 90.8087C180.655 90.6336 180.344 90.5023 179.93 90.4148C179.516 90.3127 179.191 90.2105 178.954 90.0792C178.717 89.9625 178.554 89.802 178.436 89.6269C178.317 89.4519 178.274 89.233 178.274 88.9705C178.274 88.5619 178.436 88.2409 178.746 87.9783C179.058 87.7158 179.457 87.5845 179.945 87.5845C180.463 87.5845 180.892 87.7303 181.202 88.0076C181.528 88.2847 181.676 88.6494 181.676 89.1163H181.158C181.158 88.81 181.04 88.5619 180.818 88.3723C180.581 88.1826 180.301 88.0805 179.945 88.0805C179.605 88.0805 179.323 88.168 179.117 88.3285C178.91 88.489 178.806 88.7078 178.806 88.9705C178.806 89.233 178.894 89.4227 179.072 89.5685C179.25 89.7145 179.56 89.8312 180.019 89.9479C180.478 90.0647 180.818 90.1959 181.055 90.3272C181.277 90.4585 181.454 90.619 181.558 90.8087C181.662 90.9983 181.72 91.2172 181.72 91.4798C181.72 91.9029 181.558 92.253 181.232 92.5156C180.907 92.7783 180.493 92.9095 179.975 92.9095C179.427 92.9095 178.983 92.7636 178.643 92.4719C178.303 92.1801 178.126 91.8154 178.126 91.3777H178.643C178.659 91.7132 178.791 91.9612 179.028 92.1509C179.265 92.3405 179.576 92.4281 179.959 92.4281C180.33 92.4281 180.611 92.3405 180.848 92.1655C181.069 91.9612 181.173 91.7424 181.173 91.4798ZM186.499 90.1521C186.499 89.6561 186.588 89.2185 186.765 88.8245C186.943 88.4307 187.194 88.1243 187.505 87.9054C187.83 87.6865 188.186 87.5698 188.599 87.5698C189.221 87.5698 189.739 87.8033 190.124 88.2847C190.508 88.7662 190.715 89.3936 190.715 90.1814V90.2981C190.715 90.7941 190.626 91.2318 190.449 91.6257C190.271 92.0196 190.035 92.3259 189.709 92.5448C189.384 92.7636 189.028 92.8658 188.615 92.8658C187.993 92.8658 187.475 92.6323 187.091 92.1509C186.691 91.6694 186.499 91.0421 186.499 90.2543V90.1521ZM187.017 90.3127C187.017 90.9254 187.165 91.4214 187.461 91.8154C187.756 92.2092 188.141 92.3989 188.615 92.3989C189.088 92.3989 189.472 92.2092 189.753 91.8154C190.049 91.4214 190.197 90.9108 190.197 90.2689V90.1667C190.197 89.7728 190.138 89.4227 189.99 89.0872C189.857 88.7661 189.664 88.5181 189.429 88.3285C189.192 88.1534 188.911 88.0659 188.599 88.0659C188.127 88.0659 187.756 88.2701 187.461 88.664C187.165 89.058 187.017 89.5832 187.017 90.2105V90.3127ZM196.263 92.7783H195.745V85.5273H196.263V92.7783ZM204.621 92.1363C204.311 92.6323 203.808 92.8803 203.113 92.8803C202.61 92.8803 202.225 92.7199 201.959 92.3989C201.693 92.0779 201.56 91.6111 201.56 90.9983V87.672H202.077V90.9254C202.077 91.9029 202.447 92.3843 203.172 92.3843C203.927 92.3843 204.4 92.0488 204.607 91.363V87.672H205.125V92.7783H204.621V92.1363ZM211.206 86.3735V87.672H212.182V88.1389H211.206V91.5381C211.206 91.8154 211.249 92.0341 211.353 92.1655C211.457 92.2968 211.605 92.3697 211.826 92.3697C211.915 92.3697 212.048 92.3552 212.241 92.326L212.271 92.7928C212.137 92.8366 211.945 92.8658 211.708 92.8658C211.353 92.8658 211.087 92.749 210.924 92.5303C210.761 92.2968 210.672 91.9758 210.672 91.5381V88.1389H209.799V87.672H210.672V86.3735H211.206ZM217.759 92.7783H217.24V87.672H217.759V92.7783ZM217.137 86.1985C217.137 86.0963 217.167 86.0087 217.24 85.9358C217.3 85.8629 217.389 85.8191 217.507 85.8191C217.625 85.8191 217.7 85.8629 217.774 85.9358C217.833 86.0087 217.877 86.0963 217.877 86.1985C217.877 86.3005 217.848 86.3881 217.774 86.4611C217.714 86.534 217.625 86.5632 217.507 86.5632C217.404 86.5632 217.315 86.534 217.24 86.4611C217.182 86.3881 217.137 86.3005 217.137 86.1985ZM222.788 90.1521C222.788 89.6561 222.877 89.2185 223.055 88.8245C223.233 88.4307 223.484 88.1243 223.795 87.9054C224.12 87.6865 224.475 87.5698 224.89 87.5698C225.511 87.5698 226.028 87.8033 226.413 88.2847C226.798 88.7662 226.99 89.3936 226.99 90.1814V90.2981C226.99 90.7941 226.902 91.2318 226.724 91.6257C226.546 92.0196 226.309 92.3259 225.985 92.5448C225.659 92.7636 225.303 92.8658 224.89 92.8658C224.268 92.8658 223.75 92.6323 223.365 92.1509C222.981 91.6694 222.774 91.0421 222.774 90.2543V90.1521H222.788ZM223.306 90.3127C223.306 90.9254 223.454 91.4214 223.75 91.8154C224.046 92.2092 224.431 92.3989 224.904 92.3989C225.378 92.3989 225.762 92.2092 226.044 91.8154C226.339 91.4214 226.487 90.9108 226.487 90.2689V90.1667C226.487 89.7728 226.428 89.4227 226.295 89.0872C226.162 88.7661 225.969 88.5181 225.732 88.3285C225.496 88.1534 225.215 88.0659 224.904 88.0659C224.431 88.0659 224.061 88.2701 223.766 88.664C223.469 89.058 223.321 89.5832 223.321 90.2105V90.3127H223.306ZM232.479 87.672L232.493 88.5474C232.671 88.2263 232.894 87.9929 233.159 87.8325C233.426 87.672 233.722 87.5845 234.032 87.5845C234.536 87.5845 234.92 87.7449 235.156 88.0513C235.408 88.3576 235.526 88.8245 235.526 89.4372V92.7928H235.008V89.4372C235.008 88.985 234.92 88.6349 234.742 88.416C234.565 88.1972 234.283 88.0805 233.899 88.0805C233.574 88.0805 233.293 88.1972 233.041 88.4014C232.789 88.6203 232.612 88.9121 232.493 89.2914V92.7928H231.976V87.6865H232.479V87.672ZM243.604 91.4798C243.604 91.2026 243.5 90.9692 243.293 90.8087C243.087 90.6336 242.775 90.5023 242.362 90.4148C241.947 90.3127 241.621 90.2105 241.384 90.0792C241.149 89.9625 240.985 89.802 240.867 89.6269C240.748 89.4519 240.704 89.233 240.704 88.9705C240.704 88.5619 240.867 88.2409 241.178 87.9783C241.489 87.7158 241.888 87.5845 242.376 87.5845C242.909 87.5845 243.323 87.7303 243.648 88.0076C243.959 88.2847 244.122 88.6494 244.122 89.1163H243.604C243.604 88.81 243.486 88.5619 243.263 88.3723C243.027 88.1826 242.746 88.0805 242.391 88.0805C242.05 88.0805 241.769 88.168 241.562 88.3285C241.355 88.489 241.252 88.7078 241.252 88.9705C241.252 89.233 241.341 89.4227 241.518 89.5685C241.696 89.7145 242.006 89.8312 242.465 89.9479C242.923 90.0647 243.263 90.1959 243.486 90.3272C243.723 90.4585 243.885 90.619 243.988 90.8087C244.093 90.9983 244.152 91.2172 244.152 91.4798C244.152 91.9029 243.988 92.253 243.664 92.5156C243.338 92.7783 242.923 92.9095 242.406 92.9095C241.858 92.9095 241.414 92.7636 241.074 92.4719C240.734 92.1801 240.556 91.8154 240.556 91.3777H241.074C241.089 91.7132 241.222 91.9612 241.459 92.1509C241.696 92.3405 242.006 92.4281 242.391 92.4281C242.761 92.4281 243.042 92.3405 243.263 92.1655C243.5 91.9612 243.604 91.7424 243.604 91.4798Z" fill="black"></path></svg> 