<?xml version="1.0" encoding="UTF-8"?> <svg xmlns="http://www.w3.org/2000/svg" width="313" height="150" viewBox="0 0 313 150" fill="none"><g clip-path="url(#clip0_1_6873)"><path d="M109.934 76.5699C109.934 78.757 108.154 80.4581 105.056 80.4581C102.182 80.4581 100.108 78.7223 100.108 76.1967H102.119C102.137 77.5419 103.267 78.6094 105.128 78.6094C106.721 78.6094 107.798 77.8978 107.798 76.7175C107.798 73.1851 100.526 75.7975 100.526 70.5207C100.526 68.5419 102.173 66.8756 105.012 66.8756C107.299 66.8756 109.578 68.0733 109.613 70.8071H107.522C107.522 69.514 106.623 68.6895 104.985 68.6895C103.348 68.6895 102.564 69.5487 102.564 70.486C102.564 73.6451 109.916 71.2758 109.916 76.5699H109.934ZM115.345 67.6654H113.449V69.8177C113.449 70.2083 113.2 70.4513 112.853 70.4513H111.527V72.0395H113.333V77.108C113.333 79.1475 114.526 80.215 116.502 80.215H118.175V78.5487H116.813C115.754 78.5487 115.354 77.9846 115.354 77.0559V72.0395H118.273V70.4339H115.354V67.6654H115.345ZM129.87 75.2247V75.9537H121.966C122.046 77.6548 123.212 78.8177 125.055 78.8177C126.319 78.8177 127.413 78.2189 127.814 77.2642H129.772C129.255 79.1562 127.467 80.4667 124.992 80.4667C121.984 80.4667 119.946 78.297 119.946 75.3549C119.946 72.2478 122.091 70.1909 124.957 70.1909C128.081 70.1909 129.87 72.4388 129.87 75.2247ZM127.867 74.4349C127.734 72.7859 126.505 71.8312 124.948 71.8312C123.39 71.8312 122.144 72.8987 121.993 74.4349H127.867ZM133.875 77.6721V66.1813H131.863V77.7763C131.863 79.3124 132.727 80.2064 134.24 80.2064H135.067V78.4706H134.649C134.15 78.4706 133.883 78.1929 133.883 77.6635L133.875 77.6721ZM139.366 77.6721V66.1813H137.354V77.7763C137.354 79.3124 138.218 80.2064 139.731 80.2064H140.559V78.4706H140.14C139.642 78.4706 139.375 78.1929 139.375 77.6635L139.366 77.6721ZM150.277 70.4339H152.289V80.215H150.313V78.8351H150.197C149.93 79.2083 148.951 80.4667 146.958 80.4667C144.083 80.4667 142.08 78.3925 142.08 75.3549C142.08 72.3173 144.056 70.1909 146.86 70.1909C148.782 70.1909 149.814 71.3539 150.144 71.8573H150.277V70.4339ZM150.34 75.3375C150.34 73.2199 148.996 71.9875 147.233 71.9875C145.471 71.9875 144.145 73.3761 144.145 75.3375C144.145 77.2989 145.409 78.6876 147.251 78.6876C149.094 78.6876 150.34 77.1948 150.34 75.3375ZM157.264 72.135H157.13V70.4339H155.19V80.215H157.201V75.3896C157.201 73.5757 158.181 72.3173 159.889 72.3173H160.833V70.4079H159.952C158.536 70.4079 157.575 71.3452 157.264 72.1263V72.135ZM170.026 70.486C170.026 69.5487 170.792 68.6895 172.447 68.6895C174.103 68.6895 174.984 69.514 174.984 70.8071H177.075C177.04 68.0733 174.752 66.8756 172.474 66.8756C169.635 66.8756 167.988 68.5419 167.988 70.5207C167.988 75.7975 175.26 73.1765 175.26 76.7175C175.26 77.8978 174.183 78.6094 172.59 78.6094C170.729 78.6094 169.599 77.5419 169.581 76.1967H167.57C167.57 78.7223 169.644 80.4581 172.518 80.4581C175.607 80.4581 177.396 78.757 177.396 76.5699C177.396 71.2758 170.044 73.6538 170.044 70.486H170.026ZM189.001 75.2247V75.9537H181.098C181.178 77.6548 182.344 78.8177 184.186 78.8177C185.45 78.8177 186.545 78.2189 186.945 77.2642H188.903C188.387 79.1562 186.598 80.4667 184.124 80.4667C181.116 80.4667 179.078 78.297 179.078 75.3549C179.078 72.2478 181.223 70.1909 184.088 70.1909C187.212 70.1909 189.001 72.4388 189.001 75.2247ZM186.999 74.4349C186.865 72.7859 185.637 71.8312 184.079 71.8312C182.522 71.8312 181.276 72.8987 181.125 74.4349H186.999ZM195.943 71.9875C197.269 71.9875 198.364 72.7338 198.702 73.8621H200.776C200.313 71.6143 198.302 70.1996 195.925 70.1996C192.873 70.1996 190.728 72.4474 190.728 75.3462C190.728 78.2449 192.837 80.4754 195.943 80.4754C198.302 80.4754 200.34 79.0868 200.776 76.8476H198.72C198.373 77.9499 197.26 78.6962 195.979 78.6962C194.101 78.6962 192.793 77.2729 192.793 75.3462C192.793 73.4195 194.039 71.9961 195.943 71.9961V71.9875ZM209.774 76.1794C209.774 77.6027 208.741 78.6528 207.335 78.6528C206.071 78.6528 205.092 77.7589 205.092 76.3703V70.4426H203.081V76.7261C203.081 78.8438 204.478 80.4667 206.766 80.4667C208.261 80.4667 209.302 79.7203 209.703 78.9132H209.836V80.2237H211.794V70.4426H209.783V76.188L209.774 76.1794ZM216.814 72.135H216.68V70.4339H214.74V80.215H216.751V75.3896C216.751 73.5757 217.73 72.3173 219.439 72.3173H220.383V70.4079H219.501C218.086 70.4079 217.125 71.3452 216.814 72.1263V72.135ZM222.705 80.215H224.717V70.4339H222.705V80.215ZM223.72 66.4069C222.955 66.4069 222.394 66.9277 222.394 67.6393C222.394 68.3857 222.955 68.8891 223.72 68.8891C224.485 68.8891 225.064 68.3857 225.064 67.6393C225.064 66.893 224.503 66.4069 223.72 66.4069ZM230.609 67.6654H228.713V69.8177C228.713 70.2083 228.464 70.4513 228.117 70.4513H226.791V72.0395H228.597V77.108C228.597 79.1475 229.79 80.215 231.766 80.215H233.439V78.5487H232.077C231.018 78.5487 230.618 77.9846 230.618 77.0559V72.0395H233.537V70.4339H230.618V67.6654H230.609ZM242.793 70.4339L240.034 77.9932H239.9L237.115 70.4339H234.925L238.975 80.6316L238.61 81.5689C238.307 82.3587 237.764 82.7666 236.848 82.7666H235.967V84.5284H237.097C238.903 84.5284 239.82 83.6692 240.399 82.1678L245 70.4339H242.793ZM79.1307 61L91.2614 66.4503V74.053C91.2614 83.0357 80.4479 88 79.1307 88C77.8135 88 67 83.0357 67 74.053V66.4503L79.1307 61ZM81.1332 66.8148L74.3959 74.0183C74.2001 74.2353 74.0577 74.487 73.9865 74.7387C73.7818 75.4851 74.2357 76.0839 75.0011 76.0839H77.8936L75.9445 80.9441C75.8466 81.2565 75.9801 81.5342 76.256 81.621C76.3183 81.6297 76.3806 81.6297 76.4518 81.621C76.6921 81.621 76.9502 81.5082 77.1371 81.3086L83.8744 74.1051C84.0702 73.8881 84.2126 73.6365 84.2838 73.3848C84.4885 72.6384 84.0346 72.0395 83.2692 72.0395H80.3767L82.3258 67.1794C82.4237 66.8669 82.2902 66.5892 82.0143 66.5024C81.7295 66.4156 81.3646 66.5458 81.1332 66.8148Z" fill="black"></path></g><defs><clipPath id="clip0_1_6873"><rect width="178" height="27" fill="white" transform="translate(67 61)"></rect></clipPath></defs></svg> 