<?xml version="1.0" encoding="UTF-8"?> <svg xmlns="http://www.w3.org/2000/svg" width="313" height="150" viewBox="0 0 313 150" fill="none"><g clip-path="url(#clip0_1_6989)"><mask id="mask0_1_6989" style="mask-type:luminance" maskUnits="userSpaceOnUse" x="69" y="56" width="175" height="38"><path d="M243.656 56H69V94H243.656V56Z" fill="white"></path></mask><g mask="url(#mask0_1_6989)"><path d="M117.19 69.8747C116.569 69.6951 115.985 69.6054 115.436 69.6054C114.56 69.6054 113.856 69.782 113.326 70.1325C112.797 70.483 112.531 70.9608 112.531 71.5662C112.531 72.0962 112.677 72.5277 112.969 72.8608C113.26 73.1939 113.621 73.4546 114.048 73.6458C114.474 73.8369 115.058 74.0483 115.802 74.2829C116.667 74.5407 117.365 74.7985 117.895 75.0505C118.424 75.3024 118.876 75.6703 119.246 76.1511C119.618 76.6319 119.804 77.2662 119.804 78.0569C119.804 78.7462 119.612 79.3573 119.228 79.8873C118.845 80.4174 118.307 80.8287 117.611 81.1183C116.916 81.4079 116.12 81.5527 115.218 81.5527C114.328 81.5527 113.461 81.3732 112.614 81.0169C111.766 80.6607 111.039 80.1857 110.43 79.5919L111.014 78.5377C111.586 79.1054 112.25 79.5485 113.006 79.87C113.761 80.1915 114.503 80.3508 115.236 80.3508C116.209 80.3508 116.984 80.1509 117.557 79.7512C118.129 79.3515 118.416 78.8129 118.416 78.1322C118.416 77.5905 118.27 77.1474 117.978 76.7998C117.686 76.4552 117.325 76.1887 116.899 76.0062C116.472 75.8209 115.877 75.6066 115.107 75.3604C114.242 75.0881 113.547 74.8333 113.023 74.5929C112.499 74.3525 112.055 73.9962 111.689 73.5212C111.323 73.0462 111.14 72.4264 111.14 71.6618C111.14 71.0072 111.323 70.4366 111.689 69.9413C112.055 69.449 112.565 69.0695 113.223 68.803C113.882 68.5395 114.643 68.4062 115.507 68.4062C116.203 68.4062 116.899 68.5105 117.6 68.7191C118.301 68.9276 118.919 69.2056 119.455 69.5504L118.905 70.6422C118.384 70.3091 117.812 70.0543 117.19 69.8747Z" fill="black"></path><path d="M135.772 82.6034C135.285 83.0581 134.764 83.4115 134.209 83.6576C133.654 83.9039 133.11 84.0284 132.575 84.0284C131.187 84.0284 129.858 83.2087 128.59 81.5694H128.353C127.133 81.5694 126.017 81.274 125.001 80.6831C123.985 80.0922 123.178 79.29 122.58 78.2791C121.981 77.2683 121.684 76.1648 121.684 74.9686C121.684 73.7725 121.981 72.6747 122.58 71.6784C123.175 70.6791 123.985 69.8885 125.001 69.3034C126.017 68.7183 127.136 68.4258 128.353 68.4258C129.569 68.4258 130.689 68.7183 131.705 69.3034C132.721 69.8885 133.528 70.6821 134.126 71.6784C134.721 72.6776 135.022 73.7753 135.022 74.9686C135.022 75.991 134.802 76.9497 134.364 77.8447C133.926 78.7397 133.322 79.4927 132.555 80.1096C131.788 80.7265 130.915 81.1523 129.941 81.384C130.929 82.4064 131.848 82.9191 132.701 82.9191C133.468 82.9191 134.304 82.5194 135.205 81.7171L135.772 82.6034ZM123.696 77.7028C124.182 78.5398 124.841 79.203 125.668 79.6897C126.495 80.1762 127.397 80.4196 128.373 80.4196C129.335 80.4196 130.228 80.1762 131.049 79.6897C131.871 79.203 132.526 78.5398 133.013 77.7028C133.499 76.8657 133.743 75.9534 133.743 74.9657C133.743 73.981 133.499 73.0744 133.013 72.249C132.526 71.4235 131.871 70.7689 131.049 70.2882C130.228 69.8073 129.335 69.5669 128.373 69.5669C127.397 69.5669 126.498 69.8073 125.668 70.2882C124.841 70.7689 124.182 71.4235 123.696 72.249C123.209 73.0744 122.966 73.981 122.966 74.9657C122.963 75.9534 123.206 76.8657 123.696 77.7028Z" fill="black"></path><path d="M140.078 79.3137C140.791 80.0522 141.781 80.423 143.046 80.423C144.314 80.423 145.298 80.0522 146.006 79.3137C146.713 78.5751 147.065 77.5382 147.065 76.2059V68.5161H148.325V76.2088C148.325 77.8858 147.857 79.1978 146.928 80.1478C145.994 81.0978 144.701 81.5728 143.043 81.5728C141.386 81.5728 140.089 81.0978 139.15 80.1478C138.212 79.1978 137.742 77.8858 137.742 76.2088V68.5161H139.002V76.2088C139.007 77.5381 139.365 78.5751 140.078 79.3137Z" fill="black"></path><path d="M161.229 81.4562L159.712 78.0183H152.622L151.125 81.4562H149.773L155.53 68.5327H156.846L162.6 81.4562H161.229ZM153.116 76.8713H159.219L156.151 69.8824L153.116 76.8713Z" fill="black"></path><path d="M173.124 81.4562L170.365 77.2391C169.976 77.2652 169.675 77.2768 169.469 77.2768H165.96V81.4562H164.697V68.5327H169.469C171.066 68.5327 172.297 68.9064 173.17 69.6508C174.04 70.398 174.475 71.4523 174.475 72.8222C174.475 73.8939 174.22 74.7888 173.708 75.5043C173.196 76.2197 172.466 76.7178 171.516 77.0016L174.584 81.4591H173.124V81.4562ZM169.469 76.1327C170.688 76.1327 171.624 75.8518 172.282 75.2928C172.941 74.7309 173.27 73.9229 173.27 72.8599C173.27 71.8259 172.941 71.0352 172.282 70.4936C171.624 69.9519 170.686 69.6797 169.469 69.6797H165.96V76.1327H169.469Z" fill="black"></path><path d="M177.91 68.5327H186.463V69.6797H179.17V74.3023H185.693V75.4492H179.17V80.3122H186.697V81.4591H177.91V68.5327Z" fill="black"></path><path d="M195.371 70.8995C194.683 70.6764 194.077 70.5664 193.553 70.5664C192.969 70.5664 192.505 70.6764 192.164 70.8995C191.824 71.1225 191.652 71.4295 191.652 71.8234C191.652 72.1796 191.769 72.4809 192.007 72.7213C192.245 72.9617 192.542 73.1586 192.903 73.3121C193.261 73.4656 193.753 73.6365 194.374 73.8219C195.238 74.0796 195.948 74.3403 196.504 74.5981C197.059 74.8559 197.528 75.2382 197.921 75.745C198.31 76.2519 198.505 76.9152 198.505 77.7435C198.505 78.5313 198.295 79.2207 197.875 79.8057C197.454 80.3908 196.876 80.8397 196.14 81.1467C195.402 81.4538 194.56 81.6101 193.61 81.6101C192.611 81.6101 191.635 81.4219 190.688 81.0454C189.738 80.6688 188.91 80.1678 188.203 79.5393L189.228 77.4307C189.872 78.0361 190.599 78.5082 191.403 78.8557C192.208 79.2004 192.957 79.3742 193.65 79.3742C194.331 79.3742 194.87 79.241 195.259 78.9774C195.648 78.7138 195.842 78.3518 195.842 77.8971C195.842 77.5263 195.725 77.2222 195.488 76.9818C195.25 76.7414 194.949 76.5474 194.583 76.3996C194.217 76.2519 193.719 76.0868 193.086 75.9014C192.222 75.6437 191.515 75.3888 190.966 75.1426C190.416 74.8964 189.949 74.5228 189.557 74.0246C189.168 73.5264 188.973 72.869 188.973 72.0551C188.973 71.3021 189.171 70.6475 189.566 70.0856C189.961 69.5238 190.522 69.0893 191.246 68.7822C191.97 68.4753 192.809 68.3188 193.759 68.3188C194.586 68.3188 195.407 68.4434 196.218 68.6896C197.027 68.9357 197.749 69.2688 198.382 69.6888L197.394 71.8524C196.73 71.4353 196.057 71.1225 195.371 70.8995Z" fill="black"></path><path d="M200.826 68.5161H203.273V81.4598H200.826V68.5161Z" fill="black"></path><path d="M215.098 75.0228H217.235V79.9407C216.566 80.4476 215.773 80.856 214.86 81.1717C213.947 81.4874 213.051 81.6438 212.175 81.6438C210.921 81.6438 209.779 81.3484 208.749 80.7575C207.718 80.1667 206.906 79.3615 206.31 78.3449C205.711 77.3282 205.414 76.2045 205.414 74.9707C205.414 73.7368 205.717 72.6188 206.327 71.6138C206.936 70.6088 207.767 69.8152 208.82 69.2272C209.874 68.6421 211.041 68.3496 212.321 68.3496C213.234 68.3496 214.136 68.5147 215.026 68.8478C215.916 69.1809 216.683 69.6356 217.327 70.2149L215.939 72.0453C215.452 71.5761 214.888 71.2141 214.247 70.9534C213.609 70.6957 212.965 70.5653 212.321 70.5653C211.517 70.5653 210.778 70.7593 210.1 71.1475C209.424 71.5356 208.892 72.0685 208.499 72.7463C208.11 73.424 207.916 74.1625 207.916 74.9649C207.916 75.7788 208.113 76.5231 208.508 77.2008C208.904 77.8786 209.435 78.4144 210.108 78.8083C210.778 79.2022 211.523 79.3992 212.338 79.3992C212.776 79.3992 213.236 79.3296 213.718 79.1877C214.199 79.0458 214.659 78.846 215.098 78.5882V75.0228Z" fill="black"></path><path d="M228.985 68.5161H231.36V81.4598H229.039L222.462 72.5478V81.4598H220.069V68.5161H222.389L228.988 77.4455V68.5161H228.985Z" fill="black"></path><path d="M240.523 70.8995C239.836 70.6764 239.229 70.5664 238.705 70.5664C238.121 70.5664 237.658 70.6764 237.317 70.8995C236.976 71.1225 236.804 71.4295 236.804 71.8234C236.804 72.1796 236.922 72.4809 237.16 72.7213C237.397 72.9617 237.695 73.1586 238.056 73.3121C238.416 73.4656 238.906 73.6365 239.527 73.8219C240.392 74.0796 241.101 74.3403 241.656 74.5981C242.211 74.8559 242.681 75.2382 243.073 75.745C243.463 76.2519 243.657 76.9152 243.657 77.7435C243.657 78.5313 243.448 79.2207 243.027 79.8057C242.606 80.3908 242.028 80.8397 241.293 81.1467C240.554 81.4538 239.713 81.6101 238.762 81.6101C237.764 81.6101 236.787 81.4219 235.84 81.0454C234.89 80.6688 234.062 80.1678 233.355 79.5393L234.38 77.4307C235.024 78.0361 235.751 78.5082 236.556 78.8557C237.36 79.2004 238.11 79.3742 238.802 79.3742C239.483 79.3742 240.022 79.241 240.411 78.9774C240.8 78.7138 240.995 78.3518 240.995 77.8971C240.995 77.5263 240.877 77.2222 240.64 76.9818C240.403 76.7414 240.102 76.5474 239.736 76.3996C239.369 76.2519 238.871 76.0868 238.239 75.9014C237.374 75.6437 236.667 75.3888 236.118 75.1426C235.568 74.8964 235.102 74.5228 234.71 74.0246C234.32 73.5264 234.125 72.869 234.125 72.0551C234.125 71.3021 234.323 70.6475 234.718 70.0856C235.113 69.5238 235.674 69.0893 236.398 68.7822C237.122 68.4753 237.961 68.3188 238.911 68.3188C239.739 68.3188 240.56 68.4434 241.37 68.6896C242.18 68.9357 242.902 69.2688 243.534 69.6888L242.546 71.8524C241.885 71.4353 241.212 71.1225 240.523 70.8995Z" fill="black"></path><path d="M91.9501 60.22L77.3437 75L83.6036 81.3343L91.9529 72.8857L94.0396 74.9971L83.6036 85.5572L73.1704 75L89.8635 58.1114L87.7768 56L69 75L83.6036 89.78L98.21 75L91.9501 68.6657L83.6007 77.1143L81.5141 75.0029L91.9501 64.4428L102.383 75L85.6902 91.8915L87.7768 94L106.554 75L91.9501 60.22Z" fill="black"></path></g></g><defs><clipPath id="clip0_1_6989"><rect width="175" height="38" fill="white" transform="translate(69 56)"></rect></clipPath></defs></svg> 