<?xml version="1.0" encoding="UTF-8"?> <svg xmlns="http://www.w3.org/2000/svg" width="313" height="150" viewBox="0 0 313 150" fill="none"><path d="M82.9368 81.8576C81.9194 81.8576 80.9945 81.7676 80.1621 81.4974C79.3296 81.2273 78.5897 80.8671 77.9423 80.4169C77.2949 79.9667 76.8324 79.3364 76.4625 78.6161C76.185 77.8957 76 76.9953 76 76.0048V67.4507H78.8672V76.0048C78.8672 76.6351 78.9597 77.0853 79.1447 77.4455C79.3296 77.8057 79.6071 78.1658 79.9771 78.436C80.347 78.7061 80.8095 78.8862 81.2719 78.9762C81.7344 79.0663 82.2893 79.1563 82.9368 79.1563C83.5842 79.1563 84.1391 79.0663 84.6016 78.9762C85.064 78.8862 85.5265 78.7061 85.8964 78.436C86.2664 78.1658 86.5439 77.8957 86.7289 77.4455C86.9138 77.0853 87.0063 76.5451 87.0063 76.0048V67.4507H89.8735V76.0048C89.8735 76.9953 89.6885 77.8957 89.3186 78.7061C88.9486 79.4264 88.4862 80.0567 87.8387 80.507C87.1913 80.9572 86.4514 81.3174 85.619 81.5875C84.8791 81.7676 83.9542 81.8576 82.9368 81.8576Z" fill="black"></path><path d="M100.047 67.4507L108.741 77.1754V67.4507H111.608V81.4074H108.741L100.694 72.313V81.4074H97.8268V69.5217L96.4395 67.4507H100.047Z" fill="black"></path><path d="M120.949 81.4074V67.4507H123.816V81.4074H120.949Z" fill="black"></path><path d="M139.078 70.242V81.4074H136.211V70.242H131.031V67.4507H144.535V70.242H139.078Z" fill="black"></path><path d="M151.75 81.4074V67.4507H154.617V81.4074H151.75Z" fill="black"></path><path d="M176.445 79.8765C175.613 80.5068 174.781 81.047 173.763 81.4072C172.746 81.7674 171.728 81.9475 170.526 81.9475C169.416 81.9475 168.399 81.7674 167.381 81.4072C166.364 81.047 165.439 80.5968 164.699 79.9665C163.867 79.3362 163.312 78.5258 162.849 77.6254C162.387 76.725 162.109 75.6444 162.109 74.4739C162.109 73.3033 162.387 72.2228 162.849 71.3224C163.312 70.4219 163.959 69.6115 164.792 68.9812C165.624 68.3509 166.456 67.9007 167.474 67.5405C168.491 67.1804 169.509 67.0903 170.618 67.0903C171.636 67.0903 172.653 67.2704 173.671 67.5405C174.688 67.8107 175.52 68.2609 176.353 68.8912L174.411 71.0522C173.856 70.6921 173.301 70.4219 172.561 70.2418C171.913 70.0618 171.173 69.9717 170.526 69.9717C169.786 69.9717 169.139 70.0618 168.491 70.2418C167.844 70.4219 167.289 70.6921 166.734 71.0522C166.179 71.4124 165.809 71.9527 165.532 72.4929C165.254 73.1232 165.069 73.7535 165.069 74.5639C165.069 75.3743 165.254 76.0046 165.532 76.6349C165.809 77.1752 166.271 77.7154 166.826 78.0756C167.381 78.4358 167.936 78.7059 168.584 78.886C169.231 79.0661 169.879 79.1561 170.618 79.1561C171.358 79.1561 172.191 79.0661 172.838 78.796C173.486 78.5258 174.226 78.1657 174.781 77.7154L176.445 79.8765Z" fill="black"></path><path d="M187.267 81.4074H184.215V67.4507H187.267V76.455L193.926 67.4507H197.626L192.909 73.7537L195.036 77.1754C195.499 77.7156 195.869 78.0758 196.331 78.2559C196.701 78.3459 197.163 78.436 197.533 78.436H198.551V81.4074H197.348C196.978 81.4074 196.609 81.4074 196.331 81.3174C195.961 81.2273 195.684 81.1373 195.314 81.0472C194.944 80.8671 194.666 80.687 194.296 80.4169C193.926 80.1468 193.556 79.6966 193.094 79.2464L191.059 76.0948L187.267 81.4074Z" fill="black"></path><path d="M209.185 78.6161H218.249V81.4074H206.41V67.4507H217.694V70.242H209.185V73.6637C209.832 73.3035 210.48 73.0334 211.312 72.9433C212.052 72.8533 212.884 72.7632 213.717 72.7632H215.844V75.5546H213.717C213.069 75.5546 212.515 75.5546 212.052 75.5546C211.59 75.5546 211.22 75.6446 210.942 75.6446C210.665 75.7347 210.295 75.7347 210.11 75.9148C209.832 76.0048 209.555 76.1849 209.277 76.2749V78.6161H209.185Z" fill="black"></path><path d="M232.215 70.242V81.4074H229.347V70.242H224.168V67.4507H237.672V70.242H232.215Z" fill="black"></path></svg> 