<?xml version="1.0" encoding="UTF-8"?> <svg xmlns="http://www.w3.org/2000/svg" width="166" height="26" viewBox="0 0 166 26" fill="none"><g clip-path="url(#clip0_1_4515)"><path d="M24.1855 13.1482C24.1855 9.0893 26.6768 6.19126 30.8031 6.19126C32.7148 6.19126 34.4016 6.95694 35.258 8.24953V0H38.6057V19.6029H35.5088L35.2839 17.5776C34.4535 19.076 32.6802 19.9487 30.6041 19.9487C26.6422 19.9487 24.1855 17.1824 24.1855 13.1482ZM35.232 13.0412C35.232 10.6947 33.7096 9.0646 31.3567 9.0646C29.0038 9.0646 27.5678 10.7277 27.5678 13.0412C27.5678 15.3547 29.0038 16.993 31.3567 16.993C33.7096 16.993 35.232 15.3876 35.232 13.0412Z" fill="white"></path><path d="M57.731 15.6512C57.757 16.7874 58.648 17.4954 60.1964 17.4954C61.7448 17.4954 62.6358 16.8862 62.6358 15.9393C62.6358 15.2807 62.2725 14.8032 61.0614 14.5397L58.5961 13.9881C56.1307 13.4612 54.9456 12.358 54.9456 10.275C54.9456 7.72276 57.212 6.19141 60.3694 6.19141C63.5268 6.19141 65.5163 7.87918 65.5423 10.4067H62.333C62.3071 9.3035 61.5285 8.58723 60.231 8.58723C58.9334 8.58723 58.129 9.16354 58.129 10.1433C58.129 10.8842 58.7345 11.3535 59.9023 11.617L62.3676 12.1686C64.6686 12.6708 65.8278 13.667 65.8278 15.6759C65.8278 18.3105 63.4749 19.9406 60.1012 19.9406C56.7276 19.9406 54.5391 18.2034 54.5391 15.643H57.7483L57.731 15.6512Z" fill="white"></path><path d="M66.9531 2.02566C66.9531 0.947126 67.8701 0.0991211 69.0292 0.0991211C70.1884 0.0991211 71.0534 0.938893 71.0534 2.02566C71.0534 3.11242 70.1365 3.97689 69.0292 3.97689C67.8701 3.97689 66.9531 3.10419 66.9531 2.02566ZM67.3337 6.58677H70.6468V19.6032H67.3337V6.58677Z" fill="white"></path><path d="M78.8731 6.1665C80.9232 6.1665 82.5235 6.98158 83.328 8.3812L83.5183 6.58639H86.6497V18.9442C86.6497 23.2913 83.9076 26.0082 79.4786 26.0082C75.5513 26.0082 72.8611 23.8758 72.4459 20.3932H75.8195C76.0444 22.081 77.3939 23.0772 79.47 23.0772C81.7969 23.0772 83.2934 21.6776 83.2934 19.5205V17.3635C82.437 18.5737 80.7502 19.3394 78.7779 19.3394C74.9026 19.3394 72.3594 16.5731 72.3594 12.8023C72.3594 9.03161 74.9631 6.1665 78.8644 6.1665H78.8731ZM79.4527 16.5402C81.7796 16.5402 83.2155 14.9841 83.2155 12.72C83.2155 10.4559 81.8055 8.98221 79.4527 8.98221C77.0998 8.98221 75.7676 10.5877 75.7676 12.72C75.7676 14.8524 77.2382 16.5402 79.4527 16.5402Z" fill="white"></path><path d="M88.6309 19.6031V6.58659H91.7623L92.0391 8.27437C92.8955 6.95708 94.5563 6.19141 96.4162 6.19141C99.8503 6.19141 101.624 8.21674 101.624 11.5923V19.6031H98.25V12.358C98.25 10.168 97.1168 9.11414 95.3695 9.11414C93.2934 9.11414 92.0218 10.4808 92.0218 12.5885V19.5948H88.6482L88.6309 19.6031Z" fill="white"></path><path d="M105.076 18.286C105.076 17.3886 105.881 16.6229 106.824 16.6229C107.766 16.6229 108.571 17.3886 108.571 18.286C108.571 19.1834 107.766 19.8914 106.824 19.8914C105.881 19.8914 105.076 19.1505 105.076 18.286Z" fill="white"></path><path d="M112.801 19.6031V8.38147H110.119V6.85012H112.801V2.81592H114.687V6.85012H117.368V8.38147H114.687V19.6031H112.801Z" fill="white"></path><path d="M118.275 13.2221C118.275 9.24551 120.879 6.50391 124.694 6.50391C128.509 6.50391 130.784 8.95736 130.784 12.5634V13.4608H120.127C120.265 16.5729 121.978 18.3595 124.858 18.3595C127.047 18.3595 128.457 17.4621 128.959 15.7743H130.784C130.066 18.4583 127.99 19.9073 124.832 19.9073C120.905 19.9073 118.275 17.2233 118.275 13.2138V13.2221ZM120.187 12.1436H128.881C128.881 9.6901 127.22 8.05995 124.703 8.05995C122.185 8.05995 120.524 9.6407 120.187 12.1436Z" fill="white"></path><path d="M132.506 16.1448C132.506 13.7984 134.391 12.3247 137.514 12.0859L141.943 11.7401V11.3202C141.943 8.8174 140.369 8.02702 138.396 8.02702C136.07 8.02702 134.685 9.03146 134.685 10.7439H132.938C132.938 8.15875 135.153 6.50391 138.448 6.50391C141.545 6.50391 143.82 7.97762 143.82 11.3532V19.6027H142.211L141.96 17.3633C141.13 18.9688 139.305 19.9156 137.03 19.9156C134.175 19.9156 132.488 18.3842 132.488 16.1448H132.506ZM141.952 13.8066V13.1233L137.99 13.4114C135.473 13.6255 134.443 14.6793 134.443 16.0954C134.443 17.6515 135.663 18.4418 137.488 18.4418C140.308 18.4418 141.943 16.5729 141.943 13.8066H141.952Z" fill="white"></path><path d="M146.545 19.6033V6.85025H148.206L148.431 8.66976C149.097 7.32777 150.593 6.5127 152.47 6.5127C154.572 6.5127 156.155 7.56653 156.787 9.22961C157.392 7.56653 159.027 6.5127 161.19 6.5127C164.096 6.5127 166.008 8.3075 166.008 11.2549V19.6033H164.157V11.6172C164.157 9.4272 162.885 8.14284 160.835 8.14284C158.595 8.14284 157.263 9.74829 157.263 11.7242V19.6033H155.377V11.5925C155.377 9.43543 154.079 8.16754 152.055 8.16754C149.815 8.16754 148.457 9.74829 148.457 11.6995V19.6033H146.545Z" fill="white"></path><path d="M20.1118 14.8116C19.4284 16.1453 18.0011 17.0756 16.3402 17.0756C14.0133 17.0756 12.1362 15.2808 12.1362 13.0744C12.1362 10.8679 14.0219 9.07311 16.3402 9.07311C17.9924 9.07311 19.4024 9.98698 20.0945 11.3043H23.3124C22.4906 8.36507 19.6879 6.20801 16.3402 6.20801C12.3524 6.20801 9.11719 9.28717 9.11719 13.0826C9.11719 16.8781 12.3524 19.9572 16.3402 19.9572C19.6966 19.9572 22.5079 17.7755 23.321 14.8198H20.1118V14.8116Z" fill="white"></path><path d="M10.2687 11.2052H7.11133V14.4161H10.2687V11.2052Z" fill="#FEE600"></path><path d="M0 6.20801H3.60719L6.14174 12.5639C6.72131 14.12 7.19708 15.462 7.36144 16.17C7.55175 15.3549 8.05346 13.98 8.63304 12.5639L11.28 6.20801H16.2194L13.9443 8.09338L8.9012 19.6032H5.57947L0 6.20801Z" fill="white"></path><path d="M7.19829 14.4243H3.42674L2.08594 11.2052H7.19829V14.4243Z" fill="#FEE600"></path><path d="M50.4312 15.6508C49.9554 16.7211 48.7963 17.3138 47.0835 17.3138C44.8431 17.3138 43.5715 16.153 43.3206 13.8642L53.6145 13.8395V12.868C53.6145 8.8091 51.0108 6.19922 46.9191 6.19922C42.8275 6.19922 40.1113 9.01492 40.1113 13.0985C40.1113 17.1821 42.9659 19.9484 47.0316 19.9484C50.4831 19.9484 52.9138 18.3347 53.5972 15.6508H50.4398H50.4312ZM46.9451 8.82556C48.9693 8.82556 50.2668 10.0111 50.2668 11.8059H43.3985C43.7272 9.8547 44.9469 8.82556 46.9451 8.82556Z" fill="white"></path></g><defs><clipPath id="clip0_1_4515"><rect width="166" height="26" fill="white"></rect></clipPath></defs></svg> 