<?xml version="1.0" encoding="UTF-8"?> <svg xmlns="http://www.w3.org/2000/svg" width="313" height="150" viewBox="0 0 313 150" fill="none"><g clip-path="url(#clip0_1_6876)"><path d="M131.656 82.7571L135.031 66.4492C135.226 66.4492 135.391 66.6922 135.496 66.8394C135.864 67.3622 136.306 68.3561 136.644 68.9746C138.234 71.9416 139.696 74.9897 141.144 78.0231C141.459 78.0672 141.346 78.0231 141.421 77.8684C143.236 74.0768 145.096 70.2998 147.091 66.6038L147.414 66.4492L150.841 82.7571H148.644L146.289 73.0828C144.699 76.315 143.199 79.6134 141.249 82.6541L136.051 72.9798L134.011 82.7645H131.656V82.7571Z" fill="black"></path><path d="M99.4807 66.0516C101.491 65.7866 104.198 66.567 105.773 67.8186C111.406 72.2729 109.043 82.3596 101.491 82.9633C89.8957 83.891 88.6582 67.4726 99.4807 66.0516ZM99.4807 68.3708C92.7682 69.2101 92.9557 81.6086 101.371 80.7472C108.196 80.0477 107.963 67.318 99.4807 68.3708Z" fill="black"></path><path d="M112.156 82.7567V66.3457C113.453 66.3825 114.773 66.2942 116.071 66.3457C118.276 66.4267 121.058 66.4267 122.071 68.768C122.813 70.4834 122.198 73.1045 120.406 73.9806C122.581 74.8494 123.556 76.0274 123.406 78.4055C123.061 84.1188 116.131 82.5137 112.148 82.7641L112.156 82.7567ZM114.728 73.2885H117.893C118.373 73.2885 119.341 72.3903 119.536 71.9559C119.926 71.1092 119.926 69.6441 119.116 69.033C118.771 68.7753 117.766 68.4514 117.353 68.4514H114.728V73.2885ZM114.728 80.7541H117.676C117.803 80.7541 118.531 80.6363 118.696 80.5995C121.126 80.062 121.546 76.528 119.438 75.6519C119.146 75.5267 118.163 75.2838 117.886 75.2838H114.721V80.7541H114.728Z" fill="black"></path><path d="M216.427 76.9703V66.5008L216.584 66.3462H218.992V82.286C218.992 82.3523 218.827 82.5584 218.879 82.6983H218.662L208.807 72.3393V82.7572H206.234L206.339 66.3462L206.932 66.6554L216.412 76.9703H216.427Z" fill="black"></path><path d="M186.742 66.3462V72.9209L186.9 73.0755H192.577L192.742 72.9209V66.3462H195.315V82.7572H192.742V75.1812H186.742V82.7572H184.17V66.3462H186.742Z" fill="black"></path><path d="M165.038 82.7572L163.575 79.6134L155.753 79.6649L154.32 82.7572H151.695L159.683 66.3462C159.87 66.3462 161.235 69.1734 161.438 69.571C163.59 73.8633 165.615 78.2293 167.73 82.5437L167.618 82.7572H165.045H165.038ZM162.413 77.2869L159.63 71.1834L156.953 77.2869H162.42H162.413Z" fill="black"></path><path d="M180.517 79.709C180.584 80.2023 181.267 81.3876 181.004 81.8146C180.862 82.0429 179.084 82.6687 178.724 82.7349C174.224 83.6037 169.792 81.579 168.569 77.0806C166.814 70.6236 171.959 64.8294 178.702 66.2945C179.197 66.3976 181.004 66.8909 181.222 67.2958C181.364 67.5682 180.479 69.0775 180.232 69.3867C179.962 69.4677 179.579 69.0481 179.324 68.9303C173.452 66.3166 169.334 72.398 171.599 77.5665C172.747 80.1728 175.537 81.2035 178.289 80.5188C178.627 80.4305 180.404 79.6353 180.509 79.709H180.517Z" fill="black"></path><path d="M230.25 66.3462V68.4445L225.428 68.5549V72.9209L225.585 73.0755H229.283V75.2843H225.585L225.428 75.4462V80.4895L225.585 80.6515H231V82.7572H222.855V66.3462H230.25Z" fill="black"></path><path d="M88.575 66.3462C88.4775 70.0054 88.7025 73.6866 88.575 77.3458C88.545 78.3691 88.5525 80.0257 88.125 80.9018C86.8875 83.4566 83.175 83.4419 81.0075 82.124C80.8725 81.9105 81.6525 79.9889 81.885 79.9226C82.4475 80.1141 82.86 80.5558 83.49 80.6442C84.465 80.7767 85.485 80.6 85.8375 79.5987C85.9275 79.3484 86.1075 78.3176 86.1075 78.0746V66.3462H88.575Z" fill="black"></path><path d="M202.065 66.3462H199.492V82.7572H202.065V66.3462Z" fill="black"></path></g><defs><clipPath id="clip0_1_6876"><rect width="150" height="17" fill="white" transform="translate(81 66)"></rect></clipPath></defs></svg> 