<?xml version="1.0" encoding="UTF-8"?> <svg xmlns="http://www.w3.org/2000/svg" width="313" height="150" viewBox="0 0 313 150" fill="none"><g clip-path="url(#clip0_1_6888)"><mask id="mask0_1_6888" style="mask-type:luminance" maskUnits="userSpaceOnUse" x="75" y="65" width="162" height="21"><path d="M237 65H75V86H237V65Z" fill="white"></path></mask><g mask="url(#mask0_1_6888)"><path d="M185.985 84.6871C184.43 83.8087 183.216 82.5771 182.324 81.0105C181.432 79.4349 180.98 77.6509 180.98 75.6677C180.98 73.6845 181.422 71.8915 182.324 70.3249C183.216 68.7492 184.439 67.5267 185.985 66.6483C187.539 65.7699 189.259 65.3262 191.163 65.3262C193.067 65.3262 194.824 65.7699 196.369 66.6483C197.915 67.5267 199.138 68.7583 200.021 70.3249C200.904 71.9006 201.345 73.6845 201.345 75.6677C201.345 77.6509 200.904 79.4439 200.021 81.0105C199.138 82.5862 197.924 83.8087 196.369 84.6871C194.815 85.5655 193.085 86.0092 191.163 86.0092C189.24 86.0092 187.53 85.5655 185.985 84.6871ZM195.284 83.1929C196.498 82.4956 197.463 81.4995 198.172 80.1955C198.88 78.8915 199.23 77.3792 199.23 75.6586C199.23 73.9381 198.88 72.4348 198.172 71.1399C197.463 69.8449 196.507 68.8488 195.284 68.1515C194.06 67.4542 192.69 67.1101 191.163 67.1101C189.636 67.1101 188.257 67.4542 187.042 68.1515C185.828 68.8488 184.862 69.8449 184.154 71.1399C183.445 72.4348 183.096 73.9381 183.096 75.6586C183.096 77.3792 183.445 78.8915 184.154 80.1955C184.862 81.4995 185.818 82.4956 187.042 83.1929C188.257 83.8902 189.636 84.2343 191.163 84.2343C192.69 84.2343 194.07 83.8902 195.284 83.1929Z" fill="black"></path><path d="M219.716 85.5473C219.716 85.6922 219.596 85.8009 219.458 85.8009H217.923C217.775 85.8009 217.601 85.7013 217.518 85.5836L206.415 68.9755C206.332 68.8578 206.268 68.8759 206.268 69.0208V85.5473C206.268 85.6922 206.148 85.8009 206.01 85.8009H204.475C204.327 85.8009 204.217 85.6832 204.217 85.5473V65.797C204.217 65.6521 204.337 65.5435 204.475 65.5435H206.01C206.158 65.5435 206.332 65.6431 206.415 65.7608L217.518 82.3417C217.601 82.4594 217.665 82.4412 217.665 82.2963V65.797C217.665 65.6521 217.784 65.5435 217.923 65.5435H219.458C219.606 65.5435 219.716 65.6612 219.716 65.797V85.5383V85.5473Z" fill="black"></path><path d="M225.815 67.2005C225.667 67.2005 225.557 67.3182 225.557 67.454V74.4993C225.557 74.6442 225.676 74.7529 225.815 74.7529H234.009C234.157 74.7529 234.267 74.8706 234.267 75.0064V76.1746C234.267 76.3195 234.148 76.4281 234.009 76.4281H225.815C225.667 76.4281 225.557 76.5458 225.557 76.6817V83.8447C225.557 83.9896 225.676 84.0983 225.815 84.0983H236.733C236.88 84.0983 236.99 84.216 236.99 84.3519V85.52C236.99 85.6649 236.871 85.7736 236.733 85.7736H223.754C223.607 85.7736 223.496 85.6558 223.496 85.52V65.7697C223.496 65.6248 223.616 65.5161 223.754 65.5161H236.733C236.88 65.5161 236.99 65.6338 236.99 65.7697V66.9378C236.99 67.0827 236.871 67.1914 236.733 67.1914H225.815V67.2005Z" fill="black"></path><path d="M85.0906 70.8409C85.0078 70.2342 84.7134 69.7361 84.2167 69.3286C83.6556 68.8758 82.9198 68.6495 81.9907 68.6495C81.1813 68.6495 80.5466 68.8487 80.0591 69.2562C79.5808 69.6637 79.3416 70.2523 79.3416 71.022C79.3416 71.5654 79.5256 72.0091 79.8843 72.3713C80.2431 72.7245 80.703 73.0143 81.2365 73.2407C81.7792 73.467 82.5334 73.7206 83.5176 74.0104C84.8514 74.3998 85.9368 74.7801 86.7831 75.1695C87.6293 75.5589 88.356 76.1384 88.963 76.9082C89.5701 77.6779 89.8737 78.6921 89.8737 79.9509C89.8737 81.0285 89.5885 82.0337 89.0183 82.9664C88.4479 83.8901 87.6109 84.6326 86.5163 85.185C85.4217 85.7374 84.1155 86.0091 82.5978 86.0091C81.1629 86.0091 79.8751 85.7646 78.7253 85.2847C77.5756 84.8047 76.6741 84.1074 76.0027 83.2019C75.414 82.3687 75.0736 81.4179 75 80.3312C75 80.3312 74.9541 79.9781 75.3036 79.9781H79.0749C79.4336 79.9781 79.4244 80.2225 79.4244 80.2225C79.5164 80.938 79.8107 81.5175 80.2982 81.9522C80.8409 82.4321 81.5768 82.6766 82.5242 82.6766C83.4716 82.6766 84.2443 82.4502 84.787 81.9974C85.3389 81.5447 85.6149 80.947 85.6149 80.2135C85.6149 79.6158 85.4309 79.1177 85.0538 78.7374C84.6766 78.3481 84.2167 78.0492 83.6556 77.8228C83.0945 77.5964 82.3219 77.3519 81.3469 77.0803C80.0131 76.6908 78.9277 76.3105 78.0907 75.9393C77.2536 75.568 76.5362 74.9974 75.9383 74.2277C75.3496 73.458 75.046 72.4438 75.046 71.1669C75.046 69.9716 75.3496 68.9302 75.9567 68.0337C76.5637 67.1462 77.4192 66.467 78.5138 65.9871C79.6084 65.5162 80.8685 65.2808 82.2851 65.2808C84.4007 65.2808 86.1299 65.7879 87.4545 66.8021C88.779 67.8163 89.4782 69.1656 89.6345 70.9224C89.6345 70.9224 89.6529 71.0492 89.4689 71.0492H85.2653C85.1181 71.0492 85.0906 70.8409 85.0906 70.8409Z" fill="black"></path><path d="M154.374 65.5708C154.521 65.5708 154.631 65.6885 154.631 65.8244V85.5385C154.631 85.6834 154.512 85.7921 154.374 85.7921H150.777C150.63 85.7921 150.52 85.6743 150.52 85.5385V65.8334C150.52 65.6885 150.639 65.5799 150.777 65.5799H154.374V65.5708Z" fill="black"></path><path d="M162.632 84.6691C161.022 83.7816 159.743 82.5501 158.805 80.9744C157.867 79.3987 157.389 77.6148 157.389 75.6316C157.389 73.6484 157.858 71.8916 158.805 70.3159C159.743 68.7402 161.022 67.5087 162.632 66.6212C164.241 65.7338 166.007 65.29 167.93 65.29C169.852 65.29 171.646 65.7338 173.246 66.6212C174.847 67.5087 176.116 68.7402 177.045 70.3159C177.974 71.8916 178.444 73.6665 178.444 75.6316C178.444 77.5966 177.974 79.4077 177.045 80.9744C176.116 82.5501 174.838 83.7816 173.237 84.6691C171.637 85.5565 169.862 86.0003 167.939 86.0003C166.017 86.0003 164.251 85.5565 162.641 84.6691H162.632ZM171.195 81.5539C172.134 81.0015 172.869 80.2137 173.403 79.1904C173.936 78.1672 174.194 76.9809 174.194 75.6225C174.194 74.2642 173.927 73.0869 173.403 72.0727C172.869 71.0585 172.134 70.2797 171.195 69.7364C170.257 69.193 169.162 68.9213 167.93 68.9213C166.697 68.9213 165.603 69.193 164.646 69.7364C163.689 70.2797 162.954 71.0585 162.42 72.0727C161.887 73.0869 161.629 74.2732 161.629 75.6225C161.629 76.9718 161.896 78.1672 162.42 79.1904C162.944 80.2137 163.689 81.0015 164.646 81.5539C165.603 82.1063 166.688 82.378 167.93 82.378C169.172 82.378 170.257 82.1063 171.195 81.5539Z" fill="black"></path><path d="M101.564 66.5573V84.8316C101.564 84.9674 101.472 85.0851 101.334 85.1213L97.8113 85.9998C97.6181 86.045 97.4433 85.9093 97.4433 85.71V71.1123C97.4433 70.9222 97.2594 70.7773 97.0754 70.8226L93.1569 71.7915C92.9638 71.8368 92.7891 71.6919 92.7891 71.5017V68.5768C92.7891 68.4409 92.881 68.3232 93.019 68.287L101.196 66.2585C101.389 66.2132 101.564 66.3581 101.564 66.5483V66.5573ZM106.632 65.2986C106.632 65.1084 106.449 64.9636 106.265 65.0088L103.312 65.7423C103.183 65.7786 103.082 65.8963 103.082 66.0321V68.9571C103.082 69.1473 103.266 69.2921 103.45 69.2469L106.412 68.5134C106.54 68.4771 106.642 68.3594 106.642 68.2236V65.2986H106.632Z" fill="black"></path><path d="M146.415 70.3703C145.522 68.8308 144.253 67.6536 142.616 66.8205C140.979 65.9874 139.075 65.5708 136.922 65.5708H129.996C129.849 65.5708 129.738 65.6885 129.738 65.8244V85.5385C129.738 85.6834 129.858 85.7921 129.996 85.7921H136.922C139.084 85.7921 140.979 85.3754 142.616 84.5424C144.253 83.7092 145.522 82.541 146.415 81.0197C147.307 79.5074 147.758 77.7325 147.758 75.7041C147.758 73.6756 147.307 71.8916 146.415 70.3612V70.3703ZM141.779 80.6122C140.601 81.7713 138.937 82.3509 136.775 82.3509H134.126C133.979 82.3509 133.868 82.2332 133.868 82.0973V69.2474C133.868 69.1025 133.988 68.9938 134.126 68.9938H136.775C138.937 68.9938 140.601 69.5915 141.779 70.7778C142.956 71.9641 143.545 73.6122 143.545 75.7221C143.545 77.8321 142.956 79.4621 141.779 80.6212V80.6122Z" fill="black"></path><path d="M126.04 65.5708H122.416C122.269 65.5708 122.159 65.6885 122.159 65.8244V78.0857C122.159 79.4621 121.791 80.5035 121.073 81.228C120.356 81.9524 119.316 82.3147 117.983 82.3147C116.649 82.3147 115.646 81.9524 114.92 81.228C114.193 80.5035 113.834 79.4531 113.834 78.0857V65.8334C113.834 65.6885 113.715 65.5799 113.577 65.5799H109.98C109.833 65.5799 109.723 65.6976 109.723 65.8334V78.0675C109.723 79.7882 110.081 81.2371 110.808 82.4324C111.535 83.6187 112.519 84.5152 113.77 85.1128C115.012 85.7105 116.401 86.0093 117.937 86.0093C119.473 86.0093 120.899 85.7105 122.159 85.1128C123.428 84.5152 124.431 83.6187 125.194 82.4324C125.948 81.2461 126.326 79.7882 126.326 78.0675V65.8334C126.326 65.6885 126.206 65.5799 126.068 65.5799L126.04 65.5708Z" fill="black"></path></g></g><defs><clipPath id="clip0_1_6888"><rect width="162" height="21" fill="white" transform="translate(75 65)"></rect></clipPath></defs></svg> 