<?xml version="1.0" encoding="UTF-8"?> <svg xmlns="http://www.w3.org/2000/svg" width="313" height="150" viewBox="0 0 313 150" fill="none"><g clip-path="url(#clip0_1_6903)"><path d="M93.3717 92.6459L129.609 69.9455V76.3901L116.833 87.593C108.996 89.1791 101.234 91.2416 93.3717 92.6459ZM121.627 73.87L129.609 59.7645V55.3761L93 91.7995L121.627 73.8637V73.87ZM129.609 93.3919V85.637L94.6884 93.3919H129.609ZM218.975 88.0694H209.777C210.054 91.8434 214.193 92.533 216.253 89.6304L218.603 90.3138C217.816 93.4859 213.954 94.5391 211.056 93.6239C204.787 91.6366 205.644 81.1045 212.681 80.7785C217.198 80.5716 219.252 83.913 218.981 88.0694H218.975ZM216.159 86.0132C215.957 82.0072 210.18 82.1765 209.966 86.0132H216.159ZM170.345 66.6856C169.381 56.3729 183.266 56.235 182.372 66.2091H173.451C173.029 66.51 173.533 67.7513 173.76 68.14C175.02 70.2966 178.516 69.864 179.638 67.7451C180.368 68.071 181.15 68.2215 181.906 68.4472C182.082 68.4973 182.277 68.3344 182.17 68.7168C182.107 68.9299 181.773 69.4565 181.616 69.6634C178.327 73.9703 170.862 72.2275 170.345 66.6793V66.6856ZM173.356 64.1529H179.549C179.562 60.1845 173.539 60.404 173.356 64.1529ZM176.891 93.3605L176.614 93.6552L174.654 93.5925L174.472 91.9876C172.777 93.8433 170.018 94.6332 167.705 93.3982C165.519 92.2321 165.179 89.0725 166.962 87.4049C168.858 85.637 172.09 86.2138 174.257 85.1731C173.602 82.4335 169.967 82.678 168.72 84.8659L166.408 84.3205C166.886 80.0325 174.698 79.5247 176.425 83.0416C177.609 85.449 176.563 90.5959 176.884 93.3605H176.891ZM174.106 87.6933C173.942 87.5303 169.992 88.4017 169.532 88.6525C167.731 89.6304 168.474 91.7181 170.44 91.8184C172.764 91.9375 174.478 89.9878 174.106 87.6933ZM153.543 70.3154C151.905 71.7197 150.475 72.2024 148.283 72.008C145.504 71.7573 144.2 69.0365 145.277 66.5727C146.361 64.0839 150.941 64.0275 153.266 63.5887C153.323 60.6547 148.761 60.7174 147.892 63.0432L145.385 62.4665C146.021 58.4167 152.85 57.7709 155.055 60.5983C155.263 60.8679 155.893 61.9462 155.893 62.1906V71.8137H153.638L153.543 70.3154ZM153.266 65.833C151.937 66.0524 148.043 66.2467 147.678 67.8328C147.281 69.5694 148.887 70.121 150.343 69.9267C152.296 69.6634 153.455 67.6886 153.266 65.833ZM185.654 80.7848C185.295 80.8224 184.923 80.9164 184.577 81.023C183.682 81.3051 183.14 82.0699 182.643 82.2768C182.113 82.4962 182.479 81.2675 182.366 81.1546L180.003 81.3302L179.946 93.3668C180.142 93.9624 182.164 93.5612 182.737 93.674V86.1072C182.737 85.7938 183.424 84.3769 183.67 84.1011C184.583 83.0918 186.706 83.0166 187.714 83.9569C189.554 85.6684 188.357 91.1476 188.823 93.4985L191.248 93.6489L191.475 93.4985C191.4 88.6713 193.208 80.0199 185.648 80.7848H185.654ZM157.682 80.7848C156.561 80.8976 155.408 81.4242 154.671 82.2768C154.141 82.5025 154.507 81.2675 154.393 81.1546H151.949V93.674L154.683 93.4922C154.702 91.0473 154.173 87.6181 154.891 85.2985C155.773 82.4649 159.874 82.5965 160.498 85.6245C160.782 86.9912 160.322 93.0095 160.662 93.4922L163.088 93.6427L163.314 93.4922C163.207 88.7841 165.154 80.0325 157.67 80.7785L157.682 80.7848ZM133.175 93.3919C133.824 93.9624 134.971 93.5549 135.802 93.674V86.8532L136.086 86.5711H141.812V83.9569H136.086L135.802 83.6748V79.6563H143.123V76.854H133.175V93.3856V93.3919ZM160.108 77.0358L160.309 77.4183L162.382 77.3556L162.691 76.992L169.595 59.2943H166.779L163.308 68.0773L159.736 59.2943H157.014L162.048 71.5755L160.101 77.0358H160.108ZM202.916 85.4051L205.461 84.7029C204.655 80.9415 199.684 79.7065 196.61 81.5935C193.466 83.5244 193 88.339 194.795 91.3043C197.202 95.2789 204.157 94.7648 205.379 90.1194L202.658 89.3797C201.379 92.5518 197.448 91.95 196.761 88.6023C195.785 83.8503 200.169 81.0543 202.922 85.4113L202.916 85.4051ZM136.18 68.7293V55H133.364V71.5316L133.648 71.8137H143.507V69.1995H136.281C135.853 68.9425 136.187 68.7983 136.187 68.7293H136.18ZM188.495 60.0717C188.18 60.3162 187.872 60.9744 187.532 60.9807L187.437 59.2943H184.993V71.5316C185.698 72.1146 186.92 71.6883 187.809 71.8137V64.435C187.809 63.7642 188.842 62.4978 189.434 62.128C190.341 61.57 191.104 61.7205 192.124 61.7267L192.099 59.3257C191.097 58.9182 189.333 59.4197 188.489 60.0717H188.495ZM145.567 93.3919C146.172 93.8433 147.76 93.8495 148.383 93.3919V81.1546H145.567V93.3919ZM145.567 79.0984H148.383V76.6722H145.567V79.0984Z" fill="black"></path></g><defs><clipPath id="clip0_1_6903"><rect width="126" height="39" fill="white" transform="translate(93 55)"></rect></clipPath></defs></svg> 