<?xml version="1.0" encoding="UTF-8"?> <svg xmlns="http://www.w3.org/2000/svg" width="166" height="27" viewBox="0 0 166 27" fill="none"><g clip-path="url(#clip0_442_2646)"><path d="M24.1862 13.6518C24.1862 9.43482 26.6762 6.43209 30.8013 6.43209C32.7103 6.43209 34.4035 7.22789 35.2584 8.56518V0H38.6116V20.3546H35.5074L35.2833 18.2461C34.4533 19.8049 32.6854 20.7074 30.6021 20.7074C26.6513 20.7074 24.1862 17.8359 24.1862 13.6518ZM35.2335 13.5451C35.2335 11.1085 33.7063 9.41021 31.3574 9.41021C29.0085 9.41021 27.5643 11.1331 27.5643 13.5451C27.5643 15.949 29.0002 17.6472 31.3574 17.6472C33.7063 17.6472 35.2335 15.9736 35.2335 13.5451Z" fill="#D2D6D5"></path><path d="M57.7348 16.2525C57.7597 17.4257 58.6478 18.1641 60.1999 18.1641C61.7769 18.1641 62.6318 17.5324 62.6318 16.5479C62.6318 15.8669 62.2749 15.3747 61.0548 15.0957L58.5897 14.5214C56.1246 13.9717 54.9377 12.8232 54.9377 10.6655C54.9377 8.0155 57.2036 6.42389 60.3659 6.42389C63.4369 6.42389 65.5119 8.17138 65.5451 10.8049H62.333C62.3081 9.65634 61.5279 8.91796 60.2331 8.91796C58.9051 8.91796 58.1332 9.51687 58.1332 10.5342C58.1332 11.2972 58.7391 11.7894 59.9011 12.0684L62.3662 12.6427C64.6653 13.1595 65.8273 14.2015 65.8273 16.2853C65.8273 19.0173 63.4701 20.7156 60.1003 20.7156C56.6973 20.7156 54.5393 18.9107 54.5393 16.2525H57.7348Z" fill="#D2D6D5"></path><path d="M66.9478 2.10849C66.9478 0.984512 67.8608 0.114868 69.0228 0.114868C70.1267 0.114868 71.0396 0.992717 71.0396 2.10849C71.0396 3.23246 70.1267 4.13492 69.0228 4.13492C67.8608 4.13492 66.9478 3.22426 66.9478 2.10849ZM67.3378 6.84231H70.6496V20.3546H67.3378V6.84231Z" fill="#D2D6D5"></path><path d="M78.8749 6.39929C80.925 6.39929 82.5269 7.24432 83.332 8.69647L83.5229 6.83411H86.652V19.6655C86.652 24.1778 83.913 27 79.4808 27C75.5466 27 72.8657 24.7849 72.4507 21.175H75.8288C76.0529 22.9225 77.4058 23.9645 79.4808 23.9645C81.8048 23.9645 83.2988 22.5123 83.2988 20.2726V18.0328C82.4439 19.2881 80.7507 20.0839 78.7836 20.0839C74.9075 20.0839 72.3594 17.2124 72.3594 13.299C72.3677 9.3528 74.9656 6.39929 78.8749 6.39929ZM79.4559 17.1796C81.7799 17.1796 83.2241 15.5634 83.2241 13.2088C83.2241 10.9116 81.8131 9.31998 79.4559 9.31998C77.2149 9.31998 75.7707 10.9854 75.7707 13.2088C75.7707 15.4813 77.2398 17.1796 79.4559 17.1796Z" fill="#D2D6D5"></path><path d="M88.6356 20.3546V6.84228H91.7647L92.0386 8.58977C92.8935 7.21967 94.5535 6.43207 96.4127 6.43207C99.8489 6.43207 101.617 8.54055 101.617 12.0437V20.3628H98.2387V12.8395C98.2387 10.567 97.1016 9.47582 95.3586 9.47582C93.2836 9.47582 92.0137 10.8951 92.0137 13.0857V20.3628H88.6356V20.3546Z" fill="#D2D6D5"></path><path d="M105.078 18.9845C105.078 18.0574 105.883 17.2616 106.821 17.2616C107.759 17.2616 108.564 18.0574 108.564 18.9845C108.564 19.8869 107.759 20.6499 106.821 20.6499C105.875 20.6581 105.078 19.8869 105.078 18.9845Z" fill="#D2D6D5"></path><path d="M112.797 20.3546V8.69644H110.116V7.11303H112.797V2.92889H114.681V7.11303H117.362V8.69644H114.681V20.3546H112.797Z" fill="#D2D6D5"></path><path d="M118.275 13.7338C118.275 9.5989 120.873 6.76025 124.699 6.76025C128.326 6.76025 130.791 9.30355 130.791 13.0529V13.9799H120.134C120.275 17.2124 121.993 19.0665 124.865 19.0665C127.048 19.0665 128.467 18.1395 128.965 16.3838H130.791C130.069 19.1732 127.994 20.6828 124.84 20.6828C120.906 20.6828 118.275 17.8933 118.275 13.7338ZM120.184 12.6098H128.874C128.874 10.0665 127.214 8.36828 124.699 8.36828C122.184 8.36828 120.516 10.0173 120.184 12.6098Z" fill="#D2D6D5"></path><path d="M132.509 16.7694C132.509 14.3328 134.394 12.7986 137.523 12.5524L141.955 12.1997V11.7648C141.955 9.16411 140.378 8.34369 138.411 8.34369C136.087 8.34369 134.701 9.38562 134.701 11.1577H132.958C132.958 8.47496 135.174 6.75208 138.469 6.75208C141.565 6.75208 143.839 8.28626 143.839 11.7895V20.3546H142.237L141.988 18.0328C141.158 19.6983 139.332 20.6828 137.058 20.6828C134.194 20.6828 132.509 19.0994 132.509 16.7694ZM141.947 14.3327V13.619L137.987 13.9225C135.473 14.1441 134.443 15.2352 134.443 16.712C134.443 18.3282 135.663 19.1486 137.489 19.1486C140.311 19.1486 141.947 17.2124 141.947 14.3327Z" fill="#D2D6D5"></path><path d="M146.545 20.3546V7.11303H148.205L148.429 9C149.093 7.60529 150.587 6.76025 152.471 6.76025C154.571 6.76025 156.156 7.85141 156.787 9.57429C157.393 7.85141 159.028 6.76025 161.186 6.76025C164.091 6.76025 166 8.62261 166 11.6828V20.3546H164.149V12.0684C164.149 9.79581 162.879 8.45852 160.829 8.45852C158.588 8.45852 157.26 10.124 157.26 12.1832V20.3628H155.376V12.0356C155.376 9.79581 154.073 8.47493 152.056 8.47493C149.815 8.47493 148.462 10.1158 148.462 12.1422V20.3464H146.545V20.3546Z" fill="#D2D6D5"></path><path d="M50.4308 16.2525C49.9577 17.3601 48.7957 17.9754 47.0776 17.9754C44.8366 17.9754 43.5667 16.7694 43.3094 14.3901L53.6097 14.3655V13.3564C53.6097 9.13945 51.0118 6.43207 46.9116 6.43207C42.8944 6.43207 40.1056 9.36096 40.1056 13.6025C40.1056 17.7867 42.9525 20.7156 47.0278 20.7156C50.4806 20.7156 52.9125 19.0419 53.5931 16.2525H50.4308ZM46.9448 9.16406C48.9617 9.16406 50.2648 10.3947 50.2648 12.257H43.4007C43.7327 10.2306 44.9528 9.16406 46.9448 9.16406Z" fill="#D2D6D5"></path><path d="M20.1109 15.3829C19.4303 16.7694 18.0027 17.7293 16.3427 17.7293C14.0187 17.7293 12.1346 15.8669 12.1346 13.5697C12.1346 11.2726 14.0187 9.41022 16.3427 9.41022C17.9944 9.41022 19.4054 10.3619 20.0943 11.7238H23.3147C22.493 8.67184 19.6876 6.42389 16.3427 6.42389C12.3504 6.42389 9.1217 9.62352 9.1217 13.5615C9.1217 17.4996 12.3587 20.6992 16.3427 20.6992C19.6959 20.6992 22.5096 18.4348 23.323 15.3665H20.1109V15.3829Z" fill="#D2D6D5"></path><path d="M11.2797 6.44849L8.632 13.0529C8.051 14.5296 7.553 15.9489 7.3621 16.8022C7.1961 16.0638 6.723 14.6691 6.142 13.0529L3.6022 6.44849H0L2.0833 11.6417L3.4196 14.9808L5.5776 20.3628H8.8976L13.9357 8.40929L16.2099 6.44849H11.2797Z" fill="#D2D6D5"></path></g><defs><clipPath id="clip0_442_2646"><rect width="166" height="27" fill="white"></rect></clipPath></defs></svg> 