<?xml version="1.0" encoding="UTF-8"?> <svg xmlns="http://www.w3.org/2000/svg" width="313" height="150" viewBox="0 0 313 150" fill="none"><g clip-path="url(#clip0_1_6954)"><path d="M198.75 53.2417C198.358 51.1294 195.177 51.1466 194.803 53.2288V62.8205C193.549 61.898 192.581 60.3504 190.9 60.0702C189.761 59.8805 186.632 59.8891 185.453 60.0185C183.636 60.2211 179.372 63.6008 179.011 65.3467C178.567 67.5065 178.444 75.5032 179.069 77.4819C179.614 79.202 182.919 81.9955 184.683 82.5429C187.97 83.556 192.357 82.9525 194.473 80.0685C194.706 83.3405 198.534 83.9914 198.772 80.4004L198.75 53.246V53.2417ZM194.425 74.8393C194.323 75.0549 191.239 77.7104 190.825 77.9949C188.269 79.784 183.477 78.7105 182.98 75.3696C182.571 72.6149 183.394 69.3041 183.24 66.4676C183.438 65.8899 185.708 64.2819 186.386 64.1612C187.613 63.9414 189.136 64.0405 190.253 64.5794C190.971 64.9243 193.791 67.3341 194.262 67.9807C194.499 68.3083 194.693 68.6101 194.763 69.0153L194.42 74.835L194.425 74.8393ZM160.373 82.8663C158.336 83.0646 151.195 83.1077 149.492 82.5386C147.719 81.948 144.177 79.1675 146.861 77.6026C148.893 76.4171 149.628 78.5942 151.784 78.7795C153.575 78.9347 158.472 79.0166 160.14 78.758C161.9 78.4864 162.415 76.3482 160.91 75.2273C158.059 73.1021 152.361 71.7829 149.109 69.7611C144.511 66.903 146.117 60.7298 151.635 60.0788C153.879 59.8158 159.286 59.7986 161.407 60.2987C163.484 60.7858 167.369 63.575 164.659 65.5105C162.903 66.765 162.12 64.9501 160.905 64.4544C159.77 63.9931 153.166 63.9069 151.806 64.1267C150.913 64.269 150.249 64.9501 150.693 65.8382C150.997 66.4417 161.385 70.619 163.053 71.6191C167.959 74.5635 166.586 82.2584 160.373 82.8619V82.8663ZM125.798 58.113C124.487 57.2595 123.048 57.0439 121.49 57.2724C120.962 57.35 120.487 57.5224 120.016 57.7682C118.208 58.695 113.099 66.265 112.461 68.2566C111.881 70.0715 112.052 71.1923 112.923 72.8822C113.817 74.6238 118.454 81.3531 120.003 82.1119C122.027 83.1077 124.553 82.7542 126.269 81.3488C127.452 80.3789 132.376 73.0719 132.829 71.6105C133.317 70.0413 133.234 68.7739 132.503 67.2737C131.747 65.7175 127.074 58.945 125.798 58.1087V58.113ZM128.803 70.2396C128.662 71.576 124.482 76.2749 123.849 77.9044C122.898 78.8485 122.058 78.5726 121.231 77.6759C120.355 76.7318 117.451 72.3347 116.883 71.1578C116.655 70.6836 116.443 70.412 116.465 69.8301C116.531 68.3299 120.808 63.756 121.442 61.9713C122.001 61.3807 123.026 61.3893 123.681 61.8075C124.46 63.5922 128.975 68.6101 128.803 70.2396ZM112.105 55.7981C111.929 54.5307 111.784 50.5991 113.341 50.1508C116.615 49.2024 116.707 53.0132 116.483 55.1687C116.127 58.6174 112.527 58.8674 112.105 55.7981ZM128.825 56.0093C128.636 54.6945 128.46 50.6077 130.061 50.1465C131.219 49.8145 132.732 50.2111 132.974 51.513C133.124 52.3105 133.08 55.5782 132.891 56.3671C132.376 58.5053 129.173 58.4234 128.825 56.0093Z" fill="black"></path></g><defs><clipPath id="clip0_1_6954"><rect width="88" height="33" fill="white" transform="translate(112 50)"></rect></clipPath></defs></svg> 