<?xml version="1.0" encoding="UTF-8"?> <svg xmlns="http://www.w3.org/2000/svg" width="313" height="150" viewBox="0 0 313 150" fill="none"><g clip-path="url(#clip0_1_6964)"><path d="M186.092 62.3287L179.556 78.9972L173.104 62.5041C172.972 62.3233 172.789 62.3397 172.6 62.3178C170.699 62.0821 168.342 62.5151 166.389 62.3287V66.5822C161.044 59.9883 150.796 60.5912 146.434 67.9964C142.57 60.6734 131.949 60.0705 126.993 66.4945L125.633 68.7034C120.509 57.8122 104.024 60.805 103.048 73.2364C101.95 87.241 119.344 92.1577 125.717 80.4169C129.46 88.7648 142.391 89.2856 146.355 80.9431C150.765 88.3647 161.076 89.0718 166.394 82.3627V86.7971H171.996V72.2553L177.508 86.808L181.929 86.6217L187.105 72.4362V86.7971H192.623L192.88 86.5285V62.5918L192.623 62.3233H186.087L186.092 62.3287ZM113.679 81.4583C107.358 80.669 107.064 68.4568 113.705 67.514C117.317 67.0043 120.168 68.6103 120.971 72.4252C122.105 77.8297 119.197 82.1435 113.679 81.4528V81.4583ZM145.336 78.4601H141.173C138.958 82.6806 132.915 82.5546 130.983 78.1038C130.132 76.1525 130.132 73.083 130.92 71.1262C132.81 66.4506 138.905 66.2095 141.168 70.6548H145.331C144.643 73.2967 144.754 75.8126 145.331 78.4546L145.336 78.4601ZM155.626 81.4583C149.074 80.6581 149.053 68.4897 155.485 67.514C159.469 66.9111 162.625 69.1419 162.997 73.4118C163.444 78.5149 160.703 82.0777 155.632 81.4583H155.626ZM199.338 67.1139V72.0799H206.982V76.6896H199.338V81.7433L199.595 82.0119H208V86.7971H193.736V62.3287H208V67.1139H199.338Z" fill="black"></path></g><defs><clipPath id="clip0_1_6964"><rect width="105" height="25" fill="white" transform="translate(103 62)"></rect></clipPath></defs></svg> 