<?xml version="1.0" encoding="UTF-8"?> <svg xmlns="http://www.w3.org/2000/svg" width="313" height="150" viewBox="0 0 313 150" fill="none"><g clip-path="url(#clip0_1_6906)"><path d="M159.641 61.7637H162.762L166.81 68.5724H166.844V61.7637H169.698V72.8111H166.583L162.529 65.9296H162.501V72.8111H159.641V61.7637Z" fill="black"></path><path d="M178.228 72.8111H174.735L171.064 61.7637H174.23L176.518 69.9835H176.551L178.834 61.7637H182.005L178.228 72.8111Z" fill="black"></path><path d="M183.367 61.7642H192.658V64.0711H186.405V66.0028H192.12V68.2313H186.405V70.3367H192.825V72.8116H183.367V61.7642Z" fill="black"></path><path d="M194.475 61.7637H200.417C202.455 61.7637 204.499 62.6484 204.499 64.8713C204.499 66.0639 203.91 67.1894 202.672 67.6429V67.6709C203.899 67.9621 204.288 69.2667 204.371 70.3194C204.421 70.801 204.455 72.3799 204.86 72.8111H201.855C201.594 72.4247 201.561 71.3721 201.511 71.0473C201.428 69.9331 201.25 68.7908 199.812 68.7908H197.512V72.8111H194.475V61.7637ZM197.512 66.5623H200.062C200.978 66.5623 201.467 66.1143 201.467 65.2632C201.467 64.4457 200.784 64.0706 199.934 64.0706H197.518V66.5623H197.512Z" fill="black"></path><path d="M208.913 69.0989C208.98 70.3979 209.813 70.8178 211.118 70.8178C212.034 70.8178 212.978 70.5099 212.978 69.6868C212.978 68.6957 211.312 68.5277 209.629 68.0798C207.98 67.6318 206.22 66.9375 206.22 64.8938C206.22 62.4805 208.785 61.5342 210.968 61.5342C213.273 61.5342 215.639 62.6149 215.639 65.0953H212.601C212.651 64.1043 211.64 63.7627 210.724 63.7627C210.068 63.7627 209.257 63.9811 209.257 64.709C209.257 65.5769 210.94 65.7169 212.634 66.1648C214.317 66.6128 216.016 67.3575 216.016 69.3508C216.016 72.1505 213.5 73.0464 210.94 73.0464C208.28 73.0464 205.881 71.9321 205.881 69.0989H208.913Z" fill="black"></path><path d="M217.5 61.7642H226.786V64.0711H220.532V66.0028H226.247V68.2313H220.532V70.3367H226.952V72.8116H217.5V61.7642Z" fill="black"></path><path d="M152.565 61.5342C149.41 61.5342 146.855 64.1099 146.855 67.2903C146.855 70.4707 149.41 73.0464 152.565 73.0464C155.719 73.0464 158.274 70.4707 158.274 67.2903C158.274 64.1099 155.719 61.5342 152.565 61.5342ZM152.565 70.0227C151.065 70.0227 149.854 68.8021 149.854 67.2903C149.854 65.7785 151.065 64.5578 152.565 64.5578C154.064 64.5578 155.275 65.7841 155.275 67.2903C155.275 68.8021 154.064 70.0227 152.565 70.0227Z" fill="black"></path><path d="M139.86 70.023C138.36 70.023 137.149 68.8023 137.149 67.2905C137.149 65.7787 138.36 64.5581 139.86 64.5581C141.02 64.5581 142.014 65.2972 142.398 66.3386H145.491C145.041 63.6118 142.692 61.54 139.86 61.54C136.705 61.54 134.15 64.1157 134.15 67.2961C134.15 70.4765 136.705 73.0522 139.86 73.0522C142.692 73.0522 145.041 70.9805 145.491 68.2536H142.398C142.02 69.2839 141.026 70.023 139.86 70.023Z" fill="black"></path><path d="M119.722 60.8457C116.145 57.2397 111.214 55 105.76 55C94.847 55 86 63.9197 86 74.9223C86 80.4264 88.2215 85.3986 91.798 88.999C95.3746 92.6049 100.306 94.8447 105.76 94.8447C111.219 94.8447 116.151 92.6049 119.722 88.999C123.298 85.393 125.52 80.4208 125.52 74.9223C125.52 69.4238 123.298 64.4516 119.722 60.8457ZM105.76 66.4226C101.128 66.4226 97.3295 70.2581 97.3295 74.9223C97.3295 79.6258 101.128 83.4614 105.76 83.4614C109.597 83.4614 112.874 80.8408 113.89 77.3132H118.705C117.617 83.5004 112.23 88.2039 105.76 88.2039C98.5346 88.2039 92.6255 82.2462 92.6255 74.9223C92.6255 67.6376 98.5346 61.68 105.76 61.68C112.236 61.68 117.617 66.3834 118.705 72.5706H113.89C112.869 69.0431 109.597 66.4226 105.76 66.4226ZM109.52 74.9223C109.52 77.0109 107.865 78.7186 105.754 78.7186C103.683 78.7186 101.989 77.0109 101.989 74.9223C101.989 72.8338 103.683 71.126 105.754 71.126C107.865 71.1316 109.52 72.8394 109.52 74.9223Z" fill="black"></path><path d="M134.09 77.4126H138.3C138.559 77.4126 138.83 77.4126 139.111 77.418C139.392 77.4235 139.674 77.44 139.95 77.4617C140.225 77.4891 140.49 77.5272 140.739 77.5763C140.987 77.6254 141.196 77.7019 141.373 77.8056C141.754 78.0184 142.074 78.3132 142.339 78.6899C142.604 79.0666 142.736 79.525 142.736 80.06C142.736 80.633 142.581 81.1297 142.278 81.5501C141.974 81.9705 141.55 82.2761 141.009 82.478V82.5052C141.726 82.6472 142.272 82.9474 142.653 83.4114C143.034 83.8753 143.221 84.4376 143.221 85.1035C143.221 85.4965 143.144 85.8786 142.995 86.2553C142.841 86.6264 142.62 86.9594 142.322 87.2433C142.024 87.5324 141.654 87.7617 141.219 87.9365C140.783 88.111 140.275 88.2039 139.701 88.2039H134.095V77.4126H134.09ZM135.635 82.0522H138.725C139.602 82.0522 140.231 81.9103 140.617 81.6209C141.003 81.3318 141.196 80.9006 141.196 80.3274C141.196 79.9563 141.13 79.6561 141.003 79.4268C140.871 79.1975 140.694 79.0283 140.468 78.9027C140.242 78.7827 139.977 78.7062 139.679 78.6679C139.381 78.6353 139.067 78.6134 138.73 78.6134H135.64V82.0522H135.635ZM135.635 86.992H139.503C140.176 86.992 140.705 86.8175 141.097 86.4681C141.489 86.1188 141.682 85.6493 141.682 85.0543C141.682 84.6996 141.61 84.4103 141.472 84.1755C141.329 83.9464 141.147 83.7608 140.91 83.6242C140.672 83.4877 140.407 83.3949 140.104 83.3349C139.801 83.2804 139.486 83.2532 139.161 83.2532H135.635V86.992Z" fill="black"></path><path d="M149.086 77.4126H150.791L155.327 88.2039H153.622L152.353 84.9561H147.442L146.145 88.2039H144.551L149.086 77.4126ZM147.933 83.7444H151.867L149.936 78.7116H149.903L147.933 83.7444Z" fill="black"></path><path d="M156.711 77.4126H158.35L164.463 86.1625H164.496V77.4126H165.958V88.2039H164.264L158.206 79.5413H158.173V88.2039H156.711V77.4126Z" fill="black"></path><path d="M167.582 77.4121H169.127V82.7941L175.009 77.4121H177.006L172.117 81.7624L177.205 88.2034H175.251L171.058 82.7449L169.127 84.4207V88.2034H167.582V77.4121Z" fill="black"></path></g><defs><clipPath id="clip0_1_6906"><rect width="141" height="40" fill="white" transform="translate(86 55)"></rect></clipPath></defs></svg> 