<?xml version="1.0" encoding="UTF-8"?> <svg xmlns="http://www.w3.org/2000/svg" width="313" height="150" viewBox="0 0 313 150" fill="none"><g clip-path="url(#clip0_1_6957)"><path d="M107.205 77.101L115.222 82.4013L107.205 86.0836V77.101ZM115.583 82.1367V73.1541L107.377 76.8364L115.583 82.1367ZM89.3775 71.71V62.7274L81.3525 66.5911L89.3775 71.7175V71.71ZM106.845 86.0911V77.1086L98.82 80.6169L106.845 86.0987V86.0911ZM89.3775 81.4184V72.4358L81.36 76.1181L89.3775 81.4184ZM106.845 63.8086V55L98.82 58.5083L106.845 63.8086ZM106.845 76.3827V67.4002L98.6475 70.9992L106.845 76.3903V76.3827ZM98.4675 58.9544V67.937L106.485 64.3379L98.4675 58.9469V58.9544ZM81 66.8633V75.672L89.025 71.9897L81 66.8633ZM107.205 67.5816V76.3903L115.23 72.708L107.205 67.5816ZM98.4675 90.0456L106.485 86.3633L98.4675 81.063V90.0456ZM98.115 89.8641V81.0554L90.09 84.5638L98.115 89.8641ZM98.115 67.7555V58.9544L90.09 62.4628L98.115 67.7631V67.7555ZM89.7375 94L97.755 90.3178L89.7375 85.0174V94ZM89.7375 72.4283V81.4108L97.755 77.7286L89.7375 72.4283ZM89.7375 62.9089V71.8914L97.7625 68.0277L89.7375 62.9013V62.9089ZM165.893 64.663H163.853V75.5434H165.893V64.663ZM137.962 75.5359H135.923V64.6555H144.765C145.38 64.6555 145.897 64.7235 146.333 64.8521C146.76 64.9806 147.113 65.1621 147.382 65.3965C147.653 65.6309 147.848 65.9031 147.967 66.2206C148.088 66.5382 148.155 66.8936 148.155 67.2867V68.8972C148.155 69.2904 148.095 69.6458 147.967 69.9634C147.848 70.2809 147.645 70.5531 147.382 70.7875C147.113 71.0219 146.76 71.2034 146.333 71.3319C145.905 71.4604 145.38 71.5285 144.765 71.5285H137.962V75.5434V75.5359ZM137.962 69.9104H144.765C145.665 69.9104 146.115 69.5777 146.115 68.9048V67.2716C146.115 66.5987 145.665 66.266 144.765 66.266H137.962V69.9104ZM151.62 75.5359H149.58V64.6555H158.745C159.36 64.6555 159.878 64.7235 160.312 64.8521C160.74 64.9806 161.092 65.1621 161.363 65.3965C161.632 65.6309 161.827 65.9031 161.955 66.2206C162.075 66.5382 162.135 66.8936 162.135 67.2867V68.058C162.135 68.7611 161.933 69.3433 161.52 69.8121C161.107 70.2809 160.425 70.5607 159.465 70.6514L162.007 75.5359H159.833L157.305 70.6817H151.62V75.5359ZM151.62 69.0787H158.745C159.645 69.0787 160.095 68.746 160.095 68.0731V67.2716C160.095 66.5987 159.645 66.266 158.745 66.266H151.62V69.0787ZM121.912 69.8121C122.182 70.0465 122.535 70.228 122.963 70.3565C123.39 70.4851 123.915 70.5531 124.53 70.5531H130.875C131.775 70.5531 132.225 70.8858 132.225 71.5587V72.9349C132.225 73.6002 131.775 73.9405 130.875 73.9405H121.493V75.551H130.875C131.49 75.551 132.007 75.4829 132.442 75.3544C132.87 75.2259 133.222 75.0444 133.493 74.81C133.762 74.5832 133.958 74.3034 134.085 73.9858C134.205 73.6683 134.272 73.3129 134.272 72.9197V71.5739C134.272 71.1807 134.212 70.8253 134.085 70.5078C133.965 70.1902 133.762 69.9104 133.493 69.6836C133.222 69.4492 132.87 69.2677 132.442 69.1392C132.015 69.0107 131.49 68.9426 130.875 68.9426H124.53C123.63 68.9426 123.18 68.6099 123.18 67.937V67.2716C123.18 66.6062 123.63 66.266 124.53 66.266H133.665V64.6555H124.53C123.915 64.6555 123.397 64.7235 122.963 64.8521C122.528 64.9806 122.182 65.1621 121.912 65.3965C121.642 65.6309 121.447 65.9031 121.32 66.2206C121.2 66.5382 121.14 66.8936 121.14 67.2867V67.9219C121.14 68.315 121.2 68.6704 121.32 68.988C121.44 69.3055 121.635 69.5777 121.912 69.8121ZM198.232 75.5359H200.272V64.6555H198.232V75.5359ZM176.565 83.6186H182.243V82.9533H177.458V81.0101H181.995V80.3447H177.458V78.7342H182.243V78.0688H176.565V83.6338V83.6186ZM180.465 72.7458L169.717 64.663H167.955V75.5434H169.732V67.075L181.245 75.5434H182.243V64.663H180.465V72.7458ZM183.592 66.266H189.247V75.5359H191.28V66.266H196.785V64.6555H183.592V66.266ZM214.845 72.7458L204.105 64.663H202.342V75.5434H204.12V67.075L215.632 75.5434H216.63V64.663H214.853V72.7458H214.845ZM228.96 69.6004H225.607V71.2109H228.96V73.2146C228.96 73.691 228.36 73.9254 227.152 73.9254H222.39C221.183 73.9254 220.583 73.6758 220.583 73.1844V66.9994C220.583 66.5079 221.183 66.2584 222.39 66.2584H230.835V64.6479H222.39C219.825 64.6479 218.542 65.4343 218.542 66.9994V73.1844C218.542 74.7495 219.825 75.5359 222.39 75.5359H227.152C229.717 75.5359 231 74.7646 231 73.2146V69.6004H228.96ZM127.507 80.6774C127.372 80.564 127.2 80.4732 126.99 80.4052C126.772 80.3371 126.502 80.3069 126.188 80.3069H122.842C122.182 80.3069 122.04 79.9667 122.04 79.6869V79.3391C122.04 79.0593 122.182 78.7191 122.842 78.7191H127.575V78.0537H122.842C122.535 78.0537 122.265 78.0839 122.04 78.152C121.823 78.22 121.65 78.3032 121.515 78.4242C121.388 78.5376 121.29 78.6737 121.23 78.8249C121.17 78.9837 121.14 79.1576 121.14 79.3542V79.6869C121.14 79.8835 121.17 80.0574 121.23 80.2162C121.29 80.3674 121.388 80.5035 121.515 80.6169C121.65 80.7303 121.822 80.8211 122.033 80.8891C122.25 80.9572 122.52 80.9874 122.835 80.9874H126.18C126.84 80.9874 126.983 81.3276 126.983 81.6074V82.3333C126.983 82.613 126.84 82.9533 126.18 82.9533H121.32V83.6186H126.18C126.495 83.6186 126.765 83.5884 126.983 83.5204C127.2 83.4523 127.373 83.3691 127.5 83.2482C127.635 83.1347 127.725 82.9986 127.785 82.8474C127.845 82.6886 127.875 82.5147 127.875 82.3181V81.6074C127.875 81.4108 127.845 81.2369 127.785 81.0781C127.725 80.9269 127.635 80.7908 127.5 80.6774H127.507ZM137.25 83.6186H138.143V81.252H142.597V80.5867H138.143V78.7266H142.927V78.0613H137.25V83.6262V83.6186ZM135.967 78.8249C136.028 78.9762 136.058 79.1576 136.058 79.3542V82.3257C136.058 82.5223 136.028 82.6962 135.967 82.855C135.908 83.0062 135.81 83.1423 135.683 83.2557C135.548 83.3691 135.375 83.4599 135.158 83.5279C134.94 83.596 134.67 83.6262 134.355 83.6262H130.597C130.282 83.6262 130.012 83.596 129.795 83.5279C129.585 83.4599 129.405 83.3767 129.278 83.2557C129.15 83.1423 129.053 83.0062 128.993 82.855C128.933 82.6962 128.903 82.5147 128.903 82.3257V79.3542C128.903 79.1576 128.933 78.9837 128.993 78.8249C129.053 78.6737 129.15 78.5376 129.278 78.4242C129.405 78.3108 129.585 78.22 129.795 78.152C130.012 78.0839 130.282 78.0537 130.597 78.0537H134.363C134.678 78.0537 134.94 78.0839 135.165 78.152C135.375 78.22 135.555 78.3032 135.683 78.4242C135.81 78.5376 135.908 78.6737 135.967 78.8249ZM135.158 79.3466C135.158 79.0669 135.015 78.7266 134.355 78.7266H130.597C129.937 78.7266 129.795 79.0669 129.795 79.3466V82.3333C129.795 82.613 129.93 82.9533 130.597 82.9533H134.355C135.015 82.9533 135.158 82.613 135.158 82.3333V79.3466ZM143.632 78.7266H146.618V83.6186H147.51V78.7266H150.413V78.0613H143.625V78.7266H143.632ZM160.545 78.0537L158.49 82.5828L156.458 78.0537H155.768L153.712 82.5828L151.673 78.0537H150.833L153.368 83.6186H154.035L156.105 79.0896L158.137 83.6186H158.835L161.385 78.0537H160.538H160.545ZM175.433 78.8249C175.493 78.9837 175.522 79.1576 175.522 79.3542V79.7625C175.522 80.1103 175.425 80.4052 175.222 80.6245C175.027 80.8513 174.683 80.995 174.195 81.0403L174.06 81.0554L175.395 83.6186H174.45L173.115 81.0554H169.972V83.6186H169.073V78.0537H173.82C174.135 78.0537 174.397 78.0839 174.622 78.152C174.833 78.22 175.012 78.3032 175.14 78.4242C175.267 78.5376 175.365 78.6737 175.425 78.8249H175.433ZM174.622 79.3466C174.622 79.0669 174.48 78.7266 173.82 78.7266H169.972V80.3901H173.82C174.48 80.3901 174.622 80.0574 174.622 79.7701V79.3466ZM164.655 78.0537L168.3 83.6186H167.302L166.02 81.5998H162.592L161.288 83.6186H160.305L163.972 78.0537H164.663H164.655ZM165.622 80.9723L164.317 78.9232L162.99 80.9723H165.622Z" fill="#030303"></path></g><defs><clipPath id="clip0_1_6957"><rect width="150" height="39" fill="white" transform="translate(81 55)"></rect></clipPath></defs></svg> 