<?xml version="1.0" encoding="UTF-8"?> <svg xmlns="http://www.w3.org/2000/svg" width="313" height="150" viewBox="0 0 313 150" fill="none"><g clip-path="url(#clip0_1_6960)"><path d="M101.776 79.5887H110.53V82.3906H101.776H100.819H98.7266V63.6999H101.776V79.5887ZM123.214 72.4087C123.734 73.3665 123.994 74.467 123.994 75.6923C123.994 75.9065 123.982 76.1266 123.953 76.3468C123.929 76.5668 123.888 76.8167 123.834 77.0784H114.342C114.419 77.4116 114.537 77.7268 114.685 78.0123C115.004 78.6191 115.453 79.0831 116.038 79.4162C116.624 79.7494 117.292 79.91 118.054 79.91C118.71 79.91 119.313 79.797 119.868 79.565C120.424 79.333 120.897 78.9938 121.287 78.5478L123.143 80.4453C122.522 81.177 121.772 81.7243 120.891 82.0991C120.004 82.4738 119.071 82.6583 118.078 82.6583C116.807 82.6583 115.66 82.3667 114.644 81.7897C113.627 81.2127 112.823 80.4156 112.226 79.3984C111.635 78.3812 111.34 77.245 111.34 75.9839C111.34 74.7227 111.629 73.5865 112.214 72.5813C112.8 71.5759 113.592 70.7788 114.59 70.1899C115.589 69.601 116.7 69.3095 117.918 69.3095C119.1 69.3095 120.152 69.5831 121.062 70.1364C121.979 70.6896 122.694 71.4451 123.214 72.4087ZM121.116 74.6751C121.039 74.3004 120.932 73.9554 120.791 73.6579C120.525 73.1226 120.146 72.7121 119.662 72.4326C119.177 72.147 118.58 72.0042 117.871 72.0042C117.126 72.0042 116.482 72.1648 115.932 72.486C115.382 72.8073 114.957 73.2535 114.661 73.8364C114.525 74.0922 114.431 74.3777 114.354 74.6751H121.116ZM135.561 69.5772H138.481V82.3964H135.561V80.9748C135.2 81.3971 134.769 81.7481 134.261 82.0277C133.498 82.4441 132.635 82.6523 131.66 82.6523C130.507 82.6523 129.473 82.3608 128.545 81.7718C127.617 81.1829 126.884 80.3859 126.341 79.3805C125.803 78.3752 125.531 77.251 125.531 76.0017C125.531 74.7406 125.803 73.6044 126.341 72.5991C126.878 71.5938 127.611 70.7907 128.545 70.1958C129.473 69.601 130.513 69.3035 131.66 69.3035C132.635 69.3035 133.498 69.5117 134.249 69.9281C134.763 70.2137 135.194 70.5766 135.561 71.0049V69.5772ZM135.75 75.9839C135.75 75.2165 135.602 74.5443 135.301 73.9554C134.999 73.3665 134.58 72.9084 134.042 72.5813C133.504 72.2541 132.872 72.0875 132.145 72.0875C131.435 72.0875 130.815 72.2541 130.277 72.5813C129.739 72.9084 129.314 73.3665 129.006 73.9554C128.699 74.5443 128.539 75.2224 128.539 75.9839C128.539 76.7512 128.693 77.4234 129.006 78.0123C129.314 78.6012 129.739 79.0593 130.277 79.3865C130.815 79.7137 131.441 79.8803 132.145 79.8803C133.226 79.8803 134.095 79.5174 134.757 78.7857C135.419 78.0599 135.75 77.12 135.75 75.9839ZM149.876 63.1646H152.796V82.3906H149.876V80.9748C149.516 81.3912 149.084 81.7481 148.576 82.0277C147.813 82.4441 146.95 82.6583 145.975 82.6583C144.829 82.6583 143.788 82.3667 142.86 81.7778C141.932 81.1889 141.2 80.3918 140.662 79.3865C140.124 78.3812 139.852 77.2569 139.852 76.0076C139.852 74.7466 140.124 73.6104 140.662 72.605C141.2 71.5997 141.932 70.7966 142.86 70.2018C143.788 69.6069 144.829 69.3095 145.975 69.3095C146.95 69.3095 147.813 69.5177 148.564 69.9341C149.072 70.2196 149.51 70.5825 149.876 71.0108V63.1646ZM150.065 75.9839C150.065 75.2165 149.918 74.5443 149.616 73.9554C149.315 73.3665 148.895 72.9084 148.357 72.5813C147.819 72.2541 147.193 72.0875 146.489 72.0875C145.763 72.0875 145.13 72.2541 144.592 72.5813C144.054 72.9084 143.629 73.3665 143.321 73.9554C143.014 74.5443 142.854 75.2224 142.854 75.9839C142.854 76.7512 143.008 77.4234 143.321 78.0123C143.629 78.6012 144.054 79.0593 144.592 79.3865C145.13 79.7137 145.757 79.8803 146.46 79.8803C147.187 79.8803 147.819 79.7137 148.357 79.3865C148.895 79.0593 149.315 78.6012 149.616 78.0123C149.918 77.4234 150.065 76.7512 150.065 75.9839ZM160.184 63.6999H158.092V82.3906H161.142V74.3837H169.629V71.5759H161.142V66.5077H170.084V63.6999H161.142H160.184ZM173.536 63.6999C173.04 63.6999 172.631 63.8724 172.301 64.2056C171.97 64.5446 171.81 64.961 171.81 65.4607C171.81 65.9604 171.976 66.3768 172.301 66.7159C172.625 67.055 173.04 67.2215 173.536 67.2215C174.05 67.2215 174.464 67.049 174.783 66.7159C175.102 66.3828 175.262 65.9604 175.262 65.4607C175.262 64.961 175.102 64.5446 174.783 64.2056C174.464 63.8724 174.05 63.6999 173.536 63.6999ZM172.076 82.3906H174.996V69.5772H172.076V82.3906ZM187.03 69.5772H189.949V81.8611C189.949 83.0865 189.666 84.1632 189.098 85.0793C188.531 85.9955 187.745 86.7092 186.74 87.2268C185.729 87.7443 184.565 88.0001 183.241 88.0001C181.894 88.0001 180.723 87.7562 179.712 87.2684C178.702 86.7807 177.892 86.0906 177.272 85.1983L179.181 83.2769C179.694 83.9194 180.274 84.4012 180.93 84.7164C181.586 85.0377 182.372 85.1983 183.289 85.1983C184.435 85.1983 185.351 84.9009 186.019 84.306C186.693 83.7111 187.03 82.8962 187.03 81.8611V80.4692C186.669 80.8855 186.238 81.2365 185.729 81.5101C184.967 81.9206 184.093 82.1228 183.105 82.1228C181.971 82.1228 180.954 81.8433 180.043 81.2841C179.134 80.7249 178.418 79.9516 177.892 78.9761C177.372 77.9945 177.111 76.9 177.111 75.6923C177.111 74.4848 177.372 73.3962 177.892 72.4384C178.412 71.4748 179.127 70.7133 180.043 70.1542C180.954 69.595 181.977 69.3154 183.105 69.3154C184.116 69.3154 184.996 69.5177 185.759 69.9281C186.256 70.1958 186.675 70.5409 187.03 70.9454V69.5772ZM187.219 75.7162C187.219 74.9845 187.071 74.348 186.781 73.8067C186.492 73.2653 186.078 72.843 185.546 72.5396C185.014 72.2363 184.394 72.0875 183.69 72.0875C182.981 72.0875 182.361 72.2363 181.822 72.5396C181.285 72.843 180.865 73.2653 180.564 73.8067C180.262 74.348 180.115 74.9845 180.115 75.7162C180.115 76.43 180.262 77.0606 180.564 77.6137C180.865 78.167 181.285 78.5953 181.822 78.8928C182.361 79.1961 182.987 79.3448 183.69 79.3448C184.399 79.3448 185.014 79.1961 185.546 78.8928C186.078 78.5894 186.486 78.167 186.781 77.6257C187.071 77.0844 187.219 76.4478 187.219 75.7162ZM201.789 69.9519C201.043 69.5236 200.198 69.3095 199.241 69.3095C198.301 69.3095 197.462 69.5296 196.705 69.9638C196.214 70.2494 195.795 70.6122 195.447 71.0346V63.1705H192.526V82.3964H195.447V74.9964C195.447 74.4253 195.571 73.9197 195.819 73.4735C196.067 73.0273 196.41 72.6823 196.853 72.4326C197.296 72.1827 197.799 72.0577 198.367 72.0577C199.217 72.0577 199.909 72.3314 200.446 72.8846C200.985 73.4378 201.256 74.1398 201.256 74.9964V82.3906H204.176V74.354C204.176 73.3605 203.963 72.4801 203.537 71.7247C203.113 70.9692 202.533 70.3743 201.789 69.9519ZM211.517 63.1705H208.597V69.5772H205.547V72.2481H208.597V82.3964H211.517V72.2481H214.567V69.5772H211.517V63.1705ZM227.363 72.4087C227.884 73.3665 228.143 74.467 228.143 75.6923C228.143 75.9065 228.132 76.1266 228.102 76.3468C228.072 76.5668 228.037 76.8167 227.984 77.0784H218.485C218.563 77.4116 218.681 77.7268 218.828 78.0123C219.148 78.6191 219.597 79.0831 220.182 79.4162C220.767 79.7494 221.435 79.91 222.198 79.91C222.853 79.91 223.456 79.797 224.018 79.565C224.574 79.333 225.047 78.9938 225.436 78.5478L227.293 80.4453C226.671 81.177 225.921 81.7243 225.035 82.0991C224.148 82.4738 223.214 82.6583 222.221 82.6583C220.95 82.6583 219.803 82.3667 218.787 81.7897C217.77 81.2127 216.966 80.4156 216.375 79.3984C215.784 78.3812 215.489 77.245 215.489 75.9839C215.489 74.7227 215.778 73.5865 216.364 72.5813C216.949 71.5759 217.741 70.7788 218.739 70.1899C219.739 69.601 220.85 69.3095 222.067 69.3095C223.255 69.3095 224.301 69.5831 225.212 70.1364C226.128 70.6896 226.843 71.4451 227.363 72.4087ZM225.265 74.6751C225.188 74.3004 225.088 73.9554 224.94 73.6579C224.674 73.1226 224.301 72.7121 223.811 72.4326C223.326 72.147 222.729 72.0042 222.02 72.0042C221.276 72.0042 220.631 72.1648 220.082 72.486C219.532 72.8073 219.106 73.2535 218.811 73.8364C218.675 74.0922 218.58 74.3777 218.503 74.6751H225.265ZM238.114 69.6545C237.6 69.4225 237.027 69.3095 236.389 69.3095C234.941 69.3095 233.853 69.8092 233.137 70.8205C233.114 70.8562 233.096 70.8978 233.073 70.9335V69.5772H230.153V82.3964H233.073V75.264C233.073 74.1577 233.339 73.3486 233.87 72.831C234.403 72.3136 235.071 72.0577 235.887 72.0577C236.259 72.0577 236.583 72.1113 236.867 72.2184C237.151 72.3254 237.405 72.5039 237.635 72.7537L239.545 70.7788C239.108 70.2613 238.629 69.8865 238.114 69.6545Z" fill="black"></path><path d="M72.6132 65.5677L82.8916 75.9123C83.7014 76.7274 85.0194 76.7274 85.8292 75.9123C86.6389 75.0974 86.6389 73.7709 85.8292 72.9559L75.5507 62.6112C74.741 61.7963 73.423 61.7963 72.6132 62.6112C71.8035 63.4262 71.8035 64.7527 72.6132 65.5677ZM72.6132 72.9559C73.423 72.141 74.741 72.141 75.5507 72.9559L80.687 78.1312C81.4968 78.9462 81.4968 80.2727 80.687 81.0877C80.687 81.0877 80.687 81.0877 80.6811 81.0877L75.5448 86.257C74.7351 87.072 73.417 87.072 72.6073 86.257C71.7976 85.4421 71.7976 84.1155 72.6073 83.3006L76.2777 79.6065L72.6073 75.9123C71.8035 75.0974 71.8035 73.7709 72.6132 72.9559Z" fill="black"></path></g><defs><clipPath id="clip0_1_6960"><rect width="168" height="26" fill="white" transform="translate(72 62)"></rect></clipPath></defs></svg> 