<?xml version="1.0" encoding="UTF-8"?> <svg xmlns="http://www.w3.org/2000/svg" width="313" height="150" viewBox="0 0 313 150" fill="none"><g clip-path="url(#clip0_1_6967)"><path d="M138.34 49.3084L130.305 57.3436C120.556 67.0928 120.556 82.8994 130.305 92.6486L138.34 100.684C148.089 110.433 163.896 110.433 173.645 100.684L181.68 92.6486C191.429 82.8994 191.429 67.0928 181.68 57.3436L173.645 49.3084C163.896 39.5592 148.089 39.5592 138.34 49.3084Z" fill="black"></path><path d="M140.306 73.853C140.01 73.853 139.77 73.613 139.77 73.3166V59.1863C139.77 58.8899 140.01 58.6499 140.306 58.6499H147.519C149.065 58.6499 150.279 58.9887 151.168 59.6592C152.058 60.3297 152.502 61.3108 152.502 62.6024C152.502 63.4917 152.269 64.2399 151.804 64.8469C151.338 65.4539 150.717 65.8632 149.947 66.0609C150.865 66.2726 151.578 66.7173 152.086 67.3807C152.594 68.0442 152.848 68.8135 152.848 69.6887C152.848 71.0227 152.411 72.0461 151.528 72.7731C150.646 73.493 149.383 73.86 147.738 73.86H140.306V73.853ZM146.383 64.5787C146.813 64.5787 147.131 64.494 147.336 64.3175C147.54 64.1481 147.646 63.8799 147.646 63.52C147.646 63.16 147.54 62.8706 147.336 62.6942C147.131 62.5177 146.806 62.426 146.383 62.426H144.901C144.604 62.426 144.364 62.6659 144.364 62.9624V64.0352C144.364 64.3316 144.604 64.5716 144.901 64.5716H146.383V64.5787ZM146.708 70.0346C147.138 70.0346 147.456 69.9499 147.66 69.7875C147.865 69.6252 147.971 69.357 147.971 68.9829C147.971 68.2559 147.548 67.8889 146.701 67.8889H144.901C144.604 67.8889 144.364 68.1289 144.364 68.4253V69.4981C144.364 69.7946 144.604 70.0346 144.901 70.0346H146.701H146.708Z" fill="#F5F5F5"></path><path d="M166.062 61.7412H162.37C162.074 61.7412 161.834 61.9812 161.834 62.2776V67.6276C161.834 67.9241 161.799 68.404 161.756 68.6934C161.756 68.6934 161.728 68.8557 161.658 69.0534C161.587 69.2228 161.509 69.3922 161.389 69.5263C161.086 69.8651 160.669 70.0274 160.14 70.0274C159.611 70.0274 159.215 69.858 158.905 69.5263C158.785 69.3922 158.7 69.2228 158.63 69.0534C158.552 68.8557 158.524 68.6934 158.524 68.6934C158.481 68.404 158.446 67.9241 158.446 67.6276V62.2776C158.446 61.9812 158.206 61.7412 157.91 61.7412H154.24C153.943 61.7412 153.703 61.9812 153.703 62.2776V68.764C153.703 70.3521 154.091 71.6155 154.875 72.5471C155.658 73.4788 156.738 73.9446 158.129 73.9446C158.99 73.9446 159.731 73.7682 160.352 73.4082C160.564 73.2882 160.754 73.1329 160.931 72.9847C161.142 72.8153 161.326 72.6248 161.502 72.4271C161.693 72.2013 161.848 72.2577 161.848 72.5542V73.3306C161.848 73.627 162.088 73.867 162.385 73.867H166.076C166.372 73.867 166.612 73.627 166.612 73.3306V62.2917C166.612 61.9953 166.372 61.7553 166.076 61.7553L166.062 61.7412Z" fill="#F5F5F5"></path><mask id="mask0_1_6967" style="mask-type:luminance" maskUnits="userSpaceOnUse" x="122" y="41" width="67" height="67"><path d="M138.34 49.3084L130.305 57.3436C120.555 67.0928 120.555 82.8994 130.305 92.6486L138.34 100.684C148.089 110.433 163.896 110.433 173.645 100.684L181.68 92.6486C191.429 82.8994 191.429 67.0928 181.68 57.3436L173.645 49.3084C163.896 39.5592 148.089 39.5592 138.34 49.3084Z" fill="white"></path></mask><g mask="url(#mask0_1_6967)"><path d="M139.988 78.4192C140.92 77.4946 143.32 76.683 144.266 77.6358C145.211 78.5886 144.371 80.9813 143.44 81.9059L140.264 85.0538L142.268 92.5566C142.381 92.98 142.261 93.4318 141.943 93.7423L140.412 95.2598C140.122 95.5492 139.635 95.4786 139.445 95.1186L136.156 89.1193L131.512 93.7211L131.886 96.4526C131.914 96.6432 131.85 96.8337 131.709 96.9749L130.566 98.1042C130.354 98.3159 130.015 98.3089 129.782 98.076C129.768 98.0618 129.74 98.0266 129.719 97.9772L127.608 94.1305L123.783 91.9778C123.741 91.9496 123.698 91.9213 123.663 91.886C123.458 91.6743 123.458 91.3355 123.663 91.1238L124.806 89.9945C124.941 89.8604 125.138 89.7969 125.329 89.8251L128.06 90.2274L132.704 85.6255L126.74 82.273C126.387 82.0753 126.324 81.5883 126.606 81.2989L128.138 79.7815C128.448 79.4709 128.907 79.3509 129.331 79.4709L136.812 81.553L139.988 78.4051V78.4192Z" fill="#F5F5F5"></path></g><path d="M160.119 77.2124H150.456C150.16 77.2124 149.92 77.4524 149.92 77.7488V91.8791C149.92 92.1755 150.16 92.4155 150.456 92.4155H154.148C154.444 92.4155 154.684 92.1755 154.684 91.8791V87.2207C154.684 86.9243 154.924 86.6843 155.221 86.6843H158.439C158.735 86.6843 158.975 86.4444 158.975 86.1479V83.6352C158.975 83.3388 158.735 83.0988 158.439 83.0988H155.221C154.924 83.0988 154.684 82.8589 154.684 82.5624V81.5319C154.684 81.2355 154.924 80.9955 155.221 80.9955H160.119C160.415 80.9955 160.655 80.7556 160.655 80.4591V77.7559C160.655 77.4594 160.415 77.2195 160.119 77.2195V77.2124Z" fill="#F5F5F5"></path><path d="M166.062 76.5703H162.37C162.074 76.5703 161.834 76.8105 161.834 77.1067V91.8793C161.834 92.1755 162.074 92.4157 162.37 92.4157H166.062C166.358 92.4157 166.598 92.1755 166.598 91.8793V77.1067C166.598 76.8105 166.358 76.5703 166.062 76.5703Z" fill="#F5F5F5"></path><path d="M182.175 79.6479H177.63C177.432 79.6479 177.207 79.7962 177.129 79.9726L176.861 80.5867L175.195 84.398C175.117 84.5815 174.99 84.5745 174.913 84.398L173.776 81.7513L173.014 79.9797C172.972 79.8879 172.958 79.7679 172.965 79.6479H167.664C167.664 79.7609 167.685 79.8809 167.728 79.9656L167.869 80.2479L172.146 88.7529C172.238 88.9293 172.231 89.2116 172.139 89.3881L168.271 96.6014L167.925 97.2367C167.833 97.4131 167.918 97.5543 168.116 97.5543H172.704C172.901 97.5543 173.134 97.4131 173.226 97.2367L173.473 96.7779L178.046 88.1388L182.373 79.9656C182.465 79.7891 182.373 79.6479 182.183 79.6479H182.175Z" fill="#F5F5F5"></path><path d="M173.035 79.3297L175.315 75.0172L175.766 74.1702L182.175 62.0586C182.267 61.8821 182.175 61.7409 181.984 61.7409H177.439C177.241 61.7409 177.016 61.8892 176.938 62.0656L175.152 66.1522L175.004 66.484C174.926 66.6675 174.799 66.6604 174.722 66.484L173.141 62.8067L172.823 62.0656C172.745 61.8821 172.52 61.7339 172.322 61.7339H167.734C167.537 61.7339 167.452 61.875 167.537 62.0515L167.967 62.9126L171.948 70.8529C172.033 71.0294 172.033 71.3117 171.941 71.4881L171.771 71.8057L170.021 75.0666L168.002 78.8285L167.734 79.3297C167.685 79.4143 167.664 79.5273 167.664 79.6473H172.964C172.964 79.5343 172.992 79.4143 173.042 79.3297H173.035Z" fill="#F5F5F5"></path></g><defs><clipPath id="clip0_1_6967"><rect width="66" height="66" fill="white" transform="translate(123 42)"></rect></clipPath></defs></svg> 